%TF.GenerationSoftware,KiCad,Pcbnew,(6.0.5)*%
%TF.CreationDate,2024-05-01T13:41:59+02:00*%
%TF.ProjectId,SL2.1A-HS-HUB,534c322e-3141-42d4-9853-2d4855422e6b,rev?*%
%TF.SameCoordinates,Original*%
%TF.FileFunction,Copper,L2,Bot*%
%TF.FilePolarity,Positive*%
%FSLAX46Y46*%
G04 Gerber Fmt 4.6, Leading zero omitted, Abs format (unit mm)*
G04 Created by KiCad (PCBNEW (6.0.5)) date 2024-05-01 13:41:59*
%MOMM*%
%LPD*%
G01*
G04 APERTURE LIST*
%TA.AperFunction,ComponentPad*%
%ADD10R,1.524000X1.524000*%
%TD*%
%TA.AperFunction,ComponentPad*%
%ADD11C,1.524000*%
%TD*%
%TA.AperFunction,ComponentPad*%
%ADD12C,3.500000*%
%TD*%
%TA.AperFunction,ComponentPad*%
%ADD13C,1.500000*%
%TD*%
%TA.AperFunction,ComponentPad*%
%ADD14C,6.400000*%
%TD*%
%TA.AperFunction,ViaPad*%
%ADD15C,0.800000*%
%TD*%
G04 APERTURE END LIST*
D10*
%TO.P,J2,1,VBUS*%
%TO.N,+5V*%
X152000000Y-75977500D03*
D11*
%TO.P,J2,2,D-*%
%TO.N,Net-(U1-Pad7)*%
X149500000Y-75977500D03*
%TO.P,J2,3,D+*%
%TO.N,Net-(U1-Pad8)*%
X147500000Y-75977500D03*
%TO.P,J2,4,GND*%
%TO.N,GND*%
X145000000Y-75977500D03*
D12*
%TO.P,J2,5,Shield*%
X141930000Y-73267500D03*
X155070000Y-73267500D03*
%TD*%
D10*
%TO.P,J5,1,VBUS*%
%TO.N,+5V*%
X145000000Y-135022500D03*
D11*
%TO.P,J5,2,D-*%
%TO.N,Net-(U1-Pad1)*%
X147500000Y-135022500D03*
%TO.P,J5,3,D+*%
%TO.N,Net-(U1-Pad2)*%
X149500000Y-135022500D03*
%TO.P,J5,4,GND*%
%TO.N,GND*%
X152000000Y-135022500D03*
D12*
%TO.P,J5,5,Shield*%
X155070000Y-137732500D03*
X141930000Y-137732500D03*
%TD*%
D10*
%TO.P,J3,1,VBUS*%
%TO.N,+5V*%
X163022500Y-87750000D03*
D11*
%TO.P,J3,2,D-*%
%TO.N,Net-(U1-Pad5)*%
X163022500Y-85250000D03*
%TO.P,J3,3,D+*%
%TO.N,Net-(U1-Pad6)*%
X163022500Y-83250000D03*
%TO.P,J3,4,GND*%
%TO.N,GND*%
X163022500Y-80750000D03*
D12*
%TO.P,J3,5,Shield*%
X165732500Y-77680000D03*
X165732500Y-90820000D03*
%TD*%
D13*
%TO.P,Y1,1,1*%
%TO.N,Net-(U1-Pad15)*%
X150950000Y-114750000D03*
%TO.P,Y1,2,2*%
%TO.N,Net-(U1-Pad16)*%
X146070000Y-114750000D03*
%TD*%
D14*
%TO.P,H1,1,1*%
%TO.N,GND*%
X172000000Y-67000000D03*
%TD*%
D10*
%TO.P,J4,1,VBUS*%
%TO.N,+5V*%
X163022500Y-130250000D03*
D11*
%TO.P,J4,2,D-*%
%TO.N,Net-(U1-Pad3)*%
X163022500Y-127750000D03*
%TO.P,J4,3,D+*%
%TO.N,Net-(U1-Pad4)*%
X163022500Y-125750000D03*
%TO.P,J4,4,GND*%
%TO.N,GND*%
X163022500Y-123250000D03*
D12*
%TO.P,J4,5,Shield*%
X165732500Y-120180000D03*
X165732500Y-133320000D03*
%TD*%
D14*
%TO.P,H4,1,1*%
%TO.N,GND*%
X125000000Y-67000000D03*
%TD*%
%TO.P,H2,1,1*%
%TO.N,GND*%
X172000000Y-144000000D03*
%TD*%
%TO.P,H3,1,1*%
%TO.N,GND*%
X125000000Y-144000000D03*
%TD*%
D15*
%TO.N,GND*%
X126500000Y-128500000D03*
X155250000Y-109250000D03*
X126750000Y-101000000D03*
X148500000Y-118750000D03*
X157250000Y-119250000D03*
X145500000Y-99500000D03*
X158000000Y-96750000D03*
X133750000Y-129750000D03*
X126500000Y-82500000D03*
X146750000Y-84250000D03*
X134250000Y-103000000D03*
X134250000Y-96500000D03*
X162250000Y-111000000D03*
X124250000Y-105500000D03*
X126500000Y-125000000D03*
X162250000Y-96500000D03*
X134000000Y-81250000D03*
X153500000Y-126750000D03*
X147750000Y-105000000D03*
X156000000Y-104750000D03*
X154250000Y-99250000D03*
X162250000Y-105500000D03*
X134000000Y-87250000D03*
X162250000Y-100000000D03*
X136750000Y-106750000D03*
X133750000Y-123750000D03*
X126750000Y-110000000D03*
X133750000Y-136750000D03*
X126500000Y-86000000D03*
X150250000Y-84250000D03*
X162250000Y-114500000D03*
X146500000Y-96500000D03*
X134250000Y-73750000D03*
%TD*%
%TA.AperFunction,Conductor*%
%TO.N,GND*%
G36*
X170228176Y-63528502D02*
G01*
X170274669Y-63582158D01*
X170284773Y-63652432D01*
X170255279Y-63717012D01*
X170217258Y-63746767D01*
X170146397Y-63782872D01*
X170140687Y-63786169D01*
X169820265Y-63994253D01*
X169814939Y-63998123D01*
X169576165Y-64191478D01*
X169567700Y-64203733D01*
X169574034Y-64214824D01*
X174784310Y-69425100D01*
X174797386Y-69432241D01*
X174807753Y-69424784D01*
X175001877Y-69185061D01*
X175005747Y-69179735D01*
X175213831Y-68859313D01*
X175217128Y-68853603D01*
X175253233Y-68782742D01*
X175301981Y-68731127D01*
X175370896Y-68714061D01*
X175438098Y-68736962D01*
X175482250Y-68792559D01*
X175491500Y-68839945D01*
X175491500Y-142160055D01*
X175471498Y-142228176D01*
X175417842Y-142274669D01*
X175347568Y-142284773D01*
X175282988Y-142255279D01*
X175253233Y-142217258D01*
X175217128Y-142146397D01*
X175213831Y-142140687D01*
X175005747Y-141820265D01*
X175001877Y-141814939D01*
X174808522Y-141576165D01*
X174796267Y-141567700D01*
X174785176Y-141574034D01*
X169574900Y-146784310D01*
X169567759Y-146797386D01*
X169575216Y-146807753D01*
X169814935Y-147001874D01*
X169820272Y-147005751D01*
X170140685Y-147213830D01*
X170146394Y-147217126D01*
X170217257Y-147253233D01*
X170268872Y-147301981D01*
X170285938Y-147370896D01*
X170263037Y-147438098D01*
X170207440Y-147482250D01*
X170160054Y-147491500D01*
X126839946Y-147491500D01*
X126771825Y-147471498D01*
X126725332Y-147417842D01*
X126715228Y-147347568D01*
X126744722Y-147282988D01*
X126782743Y-147253233D01*
X126853606Y-147217126D01*
X126859315Y-147213830D01*
X127179728Y-147005751D01*
X127185065Y-147001874D01*
X127423835Y-146808522D01*
X127432300Y-146796267D01*
X127425966Y-146785176D01*
X124641922Y-144001132D01*
X125364408Y-144001132D01*
X125364539Y-144002965D01*
X125368790Y-144009580D01*
X127784310Y-146425100D01*
X127797386Y-146432241D01*
X127807753Y-146424784D01*
X128001877Y-146185061D01*
X128005747Y-146179735D01*
X128213831Y-145859313D01*
X128217128Y-145853603D01*
X128390578Y-145513189D01*
X128393260Y-145507164D01*
X128530171Y-145150498D01*
X128532212Y-145144216D01*
X128631094Y-144775184D01*
X128632465Y-144768734D01*
X128692234Y-144391371D01*
X128692920Y-144384833D01*
X128712916Y-144003301D01*
X168287084Y-144003301D01*
X168307080Y-144384833D01*
X168307766Y-144391371D01*
X168367535Y-144768734D01*
X168368906Y-144775184D01*
X168467788Y-145144216D01*
X168469829Y-145150498D01*
X168606740Y-145507164D01*
X168609422Y-145513189D01*
X168782872Y-145853603D01*
X168786169Y-145859313D01*
X168994253Y-146179735D01*
X168998123Y-146185061D01*
X169191478Y-146423835D01*
X169203733Y-146432300D01*
X169214824Y-146425966D01*
X171627978Y-144012812D01*
X171635592Y-143998868D01*
X171635461Y-143997035D01*
X171631210Y-143990420D01*
X169215690Y-141574900D01*
X169202614Y-141567759D01*
X169192247Y-141575216D01*
X168998123Y-141814939D01*
X168994253Y-141820265D01*
X168786169Y-142140687D01*
X168782872Y-142146397D01*
X168609422Y-142486811D01*
X168606740Y-142492836D01*
X168469829Y-142849502D01*
X168467788Y-142855784D01*
X168368906Y-143224816D01*
X168367535Y-143231266D01*
X168307766Y-143608629D01*
X168307080Y-143615167D01*
X168287084Y-143996699D01*
X168287084Y-144003301D01*
X128712916Y-144003301D01*
X128712916Y-143996699D01*
X128692920Y-143615167D01*
X128692234Y-143608629D01*
X128632465Y-143231266D01*
X128631094Y-143224816D01*
X128532212Y-142855784D01*
X128530171Y-142849502D01*
X128393260Y-142492836D01*
X128390578Y-142486811D01*
X128217128Y-142146397D01*
X128213831Y-142140687D01*
X128005747Y-141820265D01*
X128001877Y-141814939D01*
X127808522Y-141576165D01*
X127796267Y-141567700D01*
X127785176Y-141574034D01*
X125372022Y-143987188D01*
X125364408Y-144001132D01*
X124641922Y-144001132D01*
X122215690Y-141574900D01*
X122202614Y-141567759D01*
X122192247Y-141575216D01*
X121998123Y-141814939D01*
X121994253Y-141820265D01*
X121786169Y-142140687D01*
X121782872Y-142146397D01*
X121746767Y-142217258D01*
X121698019Y-142268873D01*
X121629104Y-142285939D01*
X121561902Y-142263038D01*
X121517750Y-142207441D01*
X121508500Y-142160055D01*
X121508500Y-141203733D01*
X122567700Y-141203733D01*
X122574034Y-141214824D01*
X124987188Y-143627978D01*
X125001132Y-143635592D01*
X125002965Y-143635461D01*
X125009580Y-143631210D01*
X127425100Y-141215690D01*
X127431630Y-141203733D01*
X169567700Y-141203733D01*
X169574034Y-141214824D01*
X171987188Y-143627978D01*
X172001132Y-143635592D01*
X172002965Y-143635461D01*
X172009580Y-143631210D01*
X174425100Y-141215690D01*
X174432241Y-141202614D01*
X174424784Y-141192247D01*
X174185065Y-140998126D01*
X174179728Y-140994249D01*
X173859315Y-140786170D01*
X173853606Y-140782873D01*
X173513189Y-140609422D01*
X173507164Y-140606740D01*
X173150498Y-140469829D01*
X173144216Y-140467788D01*
X172775184Y-140368906D01*
X172768734Y-140367535D01*
X172391371Y-140307766D01*
X172384833Y-140307080D01*
X172003301Y-140287084D01*
X171996699Y-140287084D01*
X171615167Y-140307080D01*
X171608629Y-140307766D01*
X171231266Y-140367535D01*
X171224816Y-140368906D01*
X170855784Y-140467788D01*
X170849502Y-140469829D01*
X170492836Y-140606740D01*
X170486811Y-140609422D01*
X170146397Y-140782872D01*
X170140687Y-140786169D01*
X169820265Y-140994253D01*
X169814939Y-140998123D01*
X169576165Y-141191478D01*
X169567700Y-141203733D01*
X127431630Y-141203733D01*
X127432241Y-141202614D01*
X127424784Y-141192247D01*
X127185065Y-140998126D01*
X127179728Y-140994249D01*
X126859315Y-140786170D01*
X126853606Y-140782873D01*
X126513189Y-140609422D01*
X126507164Y-140606740D01*
X126150498Y-140469829D01*
X126144216Y-140467788D01*
X125775184Y-140368906D01*
X125768734Y-140367535D01*
X125391371Y-140307766D01*
X125384833Y-140307080D01*
X125003301Y-140287084D01*
X124996699Y-140287084D01*
X124615167Y-140307080D01*
X124608629Y-140307766D01*
X124231266Y-140367535D01*
X124224816Y-140368906D01*
X123855784Y-140467788D01*
X123849502Y-140469829D01*
X123492836Y-140606740D01*
X123486811Y-140609422D01*
X123146397Y-140782872D01*
X123140687Y-140786169D01*
X122820265Y-140994253D01*
X122814939Y-140998123D01*
X122576165Y-141191478D01*
X122567700Y-141203733D01*
X121508500Y-141203733D01*
X121508500Y-139501356D01*
X140526601Y-139501356D01*
X140533059Y-139510716D01*
X140549361Y-139525012D01*
X140555901Y-139530030D01*
X140795144Y-139689887D01*
X140802281Y-139694008D01*
X141060349Y-139821272D01*
X141067953Y-139824422D01*
X141340420Y-139916912D01*
X141348383Y-139919046D01*
X141630600Y-139975183D01*
X141638751Y-139976256D01*
X141925881Y-139995075D01*
X141934119Y-139995075D01*
X142221249Y-139976256D01*
X142229400Y-139975183D01*
X142511617Y-139919046D01*
X142519580Y-139916912D01*
X142792047Y-139824422D01*
X142799651Y-139821272D01*
X143057719Y-139694008D01*
X143064856Y-139689887D01*
X143304099Y-139530030D01*
X143310639Y-139525012D01*
X143325074Y-139512353D01*
X143332050Y-139501356D01*
X153666601Y-139501356D01*
X153673059Y-139510716D01*
X153689361Y-139525012D01*
X153695901Y-139530030D01*
X153935144Y-139689887D01*
X153942281Y-139694008D01*
X154200349Y-139821272D01*
X154207953Y-139824422D01*
X154480420Y-139916912D01*
X154488383Y-139919046D01*
X154770600Y-139975183D01*
X154778751Y-139976256D01*
X155065881Y-139995075D01*
X155074119Y-139995075D01*
X155361249Y-139976256D01*
X155369400Y-139975183D01*
X155651617Y-139919046D01*
X155659580Y-139916912D01*
X155932047Y-139824422D01*
X155939651Y-139821272D01*
X156197719Y-139694008D01*
X156204856Y-139689887D01*
X156444099Y-139530030D01*
X156450639Y-139525012D01*
X156465074Y-139512353D01*
X156473472Y-139499114D01*
X156467638Y-139489349D01*
X155082810Y-138104520D01*
X155068869Y-138096908D01*
X155067034Y-138097039D01*
X155060420Y-138101290D01*
X153674116Y-139487595D01*
X153666601Y-139501356D01*
X143332050Y-139501356D01*
X143333472Y-139499114D01*
X143327638Y-139489349D01*
X141942810Y-138104520D01*
X141928869Y-138096908D01*
X141927034Y-138097039D01*
X141920420Y-138101290D01*
X140534116Y-139487595D01*
X140526601Y-139501356D01*
X121508500Y-139501356D01*
X121508500Y-137736619D01*
X139667425Y-137736619D01*
X139686244Y-138023749D01*
X139687317Y-138031900D01*
X139743454Y-138314117D01*
X139745588Y-138322080D01*
X139838078Y-138594547D01*
X139841228Y-138602151D01*
X139968492Y-138860218D01*
X139972613Y-138867355D01*
X140132470Y-139106599D01*
X140137488Y-139113139D01*
X140150147Y-139127574D01*
X140163386Y-139135972D01*
X140173151Y-139130138D01*
X141557980Y-137745310D01*
X141564357Y-137733631D01*
X142294408Y-137733631D01*
X142294539Y-137735466D01*
X142298790Y-137742080D01*
X143685095Y-139128384D01*
X143698856Y-139135899D01*
X143708216Y-139129441D01*
X143722512Y-139113139D01*
X143727530Y-139106599D01*
X143887387Y-138867355D01*
X143891508Y-138860218D01*
X144018772Y-138602151D01*
X144021922Y-138594547D01*
X144114412Y-138322080D01*
X144116546Y-138314117D01*
X144172683Y-138031900D01*
X144173756Y-138023749D01*
X144192575Y-137736619D01*
X152807425Y-137736619D01*
X152826244Y-138023749D01*
X152827317Y-138031900D01*
X152883454Y-138314117D01*
X152885588Y-138322080D01*
X152978078Y-138594547D01*
X152981228Y-138602151D01*
X153108492Y-138860218D01*
X153112613Y-138867355D01*
X153272470Y-139106599D01*
X153277488Y-139113139D01*
X153290147Y-139127574D01*
X153303386Y-139135972D01*
X153313151Y-139130138D01*
X154697980Y-137745310D01*
X154704357Y-137733631D01*
X155434408Y-137733631D01*
X155434539Y-137735466D01*
X155438790Y-137742080D01*
X156825095Y-139128384D01*
X156838856Y-139135899D01*
X156848216Y-139129441D01*
X156862512Y-139113139D01*
X156867530Y-139106599D01*
X157027387Y-138867355D01*
X157031508Y-138860218D01*
X157158772Y-138602151D01*
X157161922Y-138594547D01*
X157254412Y-138322080D01*
X157256546Y-138314117D01*
X157312683Y-138031900D01*
X157313756Y-138023749D01*
X157332575Y-137736619D01*
X157332575Y-137728381D01*
X157313756Y-137441251D01*
X157312683Y-137433100D01*
X157256546Y-137150883D01*
X157254412Y-137142920D01*
X157161922Y-136870453D01*
X157158772Y-136862849D01*
X157031508Y-136604782D01*
X157027387Y-136597645D01*
X156867530Y-136358401D01*
X156862512Y-136351861D01*
X156849853Y-136337426D01*
X156836614Y-136329028D01*
X156826849Y-136334862D01*
X155442020Y-137719690D01*
X155434408Y-137733631D01*
X154704357Y-137733631D01*
X154705592Y-137731369D01*
X154705461Y-137729534D01*
X154701210Y-137722920D01*
X153314905Y-136336616D01*
X153301144Y-136329101D01*
X153291784Y-136335559D01*
X153277488Y-136351861D01*
X153272470Y-136358401D01*
X153112613Y-136597645D01*
X153108492Y-136604782D01*
X152981228Y-136862849D01*
X152978078Y-136870453D01*
X152885588Y-137142920D01*
X152883454Y-137150883D01*
X152827317Y-137433100D01*
X152826244Y-137441251D01*
X152807425Y-137728381D01*
X152807425Y-137736619D01*
X144192575Y-137736619D01*
X144192575Y-137728381D01*
X144173756Y-137441251D01*
X144172683Y-137433100D01*
X144116546Y-137150883D01*
X144114412Y-137142920D01*
X144021922Y-136870453D01*
X144018772Y-136862849D01*
X143891508Y-136604782D01*
X143887387Y-136597645D01*
X143727530Y-136358401D01*
X143722518Y-136351869D01*
X143709850Y-136337424D01*
X143696614Y-136329028D01*
X143686849Y-136334862D01*
X142302020Y-137719690D01*
X142294408Y-137733631D01*
X141564357Y-137733631D01*
X141565592Y-137731369D01*
X141565461Y-137729534D01*
X141561210Y-137722920D01*
X140174905Y-136336616D01*
X140161144Y-136329101D01*
X140151784Y-136335559D01*
X140137488Y-136351861D01*
X140132470Y-136358401D01*
X139972613Y-136597645D01*
X139968492Y-136604782D01*
X139841228Y-136862849D01*
X139838078Y-136870453D01*
X139745588Y-137142920D01*
X139743454Y-137150883D01*
X139687317Y-137433100D01*
X139686244Y-137441251D01*
X139667425Y-137728381D01*
X139667425Y-137736619D01*
X121508500Y-137736619D01*
X121508500Y-135965886D01*
X140526528Y-135965886D01*
X140532362Y-135975651D01*
X141917190Y-137360480D01*
X141931131Y-137368092D01*
X141932966Y-137367961D01*
X141939580Y-137363710D01*
X143325884Y-135977405D01*
X143333399Y-135963644D01*
X143326941Y-135954284D01*
X143310639Y-135939988D01*
X143304099Y-135934970D01*
X143150942Y-135832634D01*
X143729500Y-135832634D01*
X143736255Y-135894816D01*
X143787385Y-136031205D01*
X143874739Y-136147761D01*
X143878992Y-136150949D01*
X143878993Y-136150950D01*
X143972381Y-136220940D01*
X143991295Y-136235115D01*
X144127684Y-136286245D01*
X144189866Y-136293000D01*
X145810134Y-136293000D01*
X145872316Y-136286245D01*
X146008705Y-136235115D01*
X146125261Y-136147761D01*
X146212615Y-136031205D01*
X146263745Y-135894816D01*
X146267306Y-135862038D01*
X146294549Y-135796476D01*
X146352912Y-135756050D01*
X146423866Y-135753596D01*
X146484884Y-135789892D01*
X146495777Y-135803369D01*
X146523023Y-135842281D01*
X146680219Y-135999477D01*
X146684727Y-136002634D01*
X146684730Y-136002636D01*
X146713523Y-136022797D01*
X146862323Y-136126988D01*
X146867305Y-136129311D01*
X146867310Y-136129314D01*
X147057810Y-136218145D01*
X147063804Y-136220940D01*
X147069112Y-136222362D01*
X147069114Y-136222363D01*
X147116705Y-136235115D01*
X147278537Y-136278478D01*
X147500000Y-136297853D01*
X147721463Y-136278478D01*
X147883295Y-136235115D01*
X147930886Y-136222363D01*
X147930888Y-136222362D01*
X147936196Y-136220940D01*
X147942190Y-136218145D01*
X148132690Y-136129314D01*
X148132695Y-136129311D01*
X148137677Y-136126988D01*
X148286477Y-136022797D01*
X148315270Y-136002636D01*
X148315273Y-136002634D01*
X148319781Y-135999477D01*
X148410905Y-135908353D01*
X148473217Y-135874327D01*
X148544032Y-135879392D01*
X148589095Y-135908353D01*
X148680219Y-135999477D01*
X148684727Y-136002634D01*
X148684730Y-136002636D01*
X148713523Y-136022797D01*
X148862323Y-136126988D01*
X148867305Y-136129311D01*
X148867310Y-136129314D01*
X149057810Y-136218145D01*
X149063804Y-136220940D01*
X149069112Y-136222362D01*
X149069114Y-136222363D01*
X149116705Y-136235115D01*
X149278537Y-136278478D01*
X149500000Y-136297853D01*
X149721463Y-136278478D01*
X149883295Y-136235115D01*
X149930886Y-136222363D01*
X149930888Y-136222362D01*
X149936196Y-136220940D01*
X149942190Y-136218145D01*
X150132690Y-136129314D01*
X150132695Y-136129311D01*
X150137677Y-136126988D01*
X150202959Y-136081277D01*
X151305777Y-136081277D01*
X151315074Y-136093293D01*
X151358069Y-136123398D01*
X151367555Y-136128876D01*
X151558993Y-136218145D01*
X151569285Y-136221891D01*
X151773309Y-136276559D01*
X151784104Y-136278462D01*
X151994525Y-136296872D01*
X152005475Y-136296872D01*
X152215896Y-136278462D01*
X152226691Y-136276559D01*
X152430715Y-136221891D01*
X152441007Y-136218145D01*
X152632445Y-136128876D01*
X152641931Y-136123398D01*
X152685764Y-136092707D01*
X152694139Y-136082229D01*
X152687071Y-136068781D01*
X152584176Y-135965886D01*
X153666528Y-135965886D01*
X153672362Y-135975651D01*
X155057190Y-137360480D01*
X155071131Y-137368092D01*
X155072966Y-137367961D01*
X155079580Y-137363710D01*
X156465884Y-135977405D01*
X156473399Y-135963644D01*
X156466941Y-135954284D01*
X156450639Y-135939988D01*
X156444099Y-135934970D01*
X156204856Y-135775113D01*
X156197719Y-135770992D01*
X155939651Y-135643728D01*
X155932047Y-135640578D01*
X155659580Y-135548088D01*
X155651617Y-135545954D01*
X155369400Y-135489817D01*
X155361249Y-135488744D01*
X155074119Y-135469925D01*
X155065881Y-135469925D01*
X154778751Y-135488744D01*
X154770600Y-135489817D01*
X154488383Y-135545954D01*
X154480420Y-135548088D01*
X154207953Y-135640578D01*
X154200349Y-135643728D01*
X153942282Y-135770992D01*
X153935145Y-135775113D01*
X153695901Y-135934970D01*
X153689361Y-135939988D01*
X153674926Y-135952647D01*
X153666528Y-135965886D01*
X152584176Y-135965886D01*
X152012812Y-135394522D01*
X151998868Y-135386908D01*
X151997035Y-135387039D01*
X151990420Y-135391290D01*
X151312207Y-136069503D01*
X151305777Y-136081277D01*
X150202959Y-136081277D01*
X150286477Y-136022797D01*
X150315270Y-136002636D01*
X150315273Y-136002634D01*
X150319781Y-135999477D01*
X150476977Y-135842281D01*
X150481354Y-135836031D01*
X150601331Y-135664685D01*
X150601332Y-135664683D01*
X150604488Y-135660176D01*
X150606811Y-135655194D01*
X150606814Y-135655189D01*
X150636081Y-135592425D01*
X150682999Y-135539140D01*
X150751276Y-135519679D01*
X150819236Y-135540221D01*
X150864471Y-135592425D01*
X150893623Y-135654941D01*
X150899103Y-135664432D01*
X150929794Y-135708265D01*
X150940271Y-135716640D01*
X150953718Y-135709572D01*
X151627978Y-135035312D01*
X151634356Y-135023632D01*
X152364408Y-135023632D01*
X152364539Y-135025465D01*
X152368790Y-135032080D01*
X153047003Y-135710293D01*
X153058777Y-135716723D01*
X153070793Y-135707426D01*
X153100897Y-135664432D01*
X153106377Y-135654941D01*
X153195645Y-135463507D01*
X153199391Y-135453215D01*
X153254059Y-135249191D01*
X153255962Y-135238396D01*
X153269045Y-135088856D01*
X164329101Y-135088856D01*
X164335559Y-135098216D01*
X164351861Y-135112512D01*
X164358401Y-135117530D01*
X164597644Y-135277387D01*
X164604781Y-135281508D01*
X164862849Y-135408772D01*
X164870453Y-135411922D01*
X165142920Y-135504412D01*
X165150883Y-135506546D01*
X165433100Y-135562683D01*
X165441251Y-135563756D01*
X165728381Y-135582575D01*
X165736619Y-135582575D01*
X166023749Y-135563756D01*
X166031900Y-135562683D01*
X166314117Y-135506546D01*
X166322080Y-135504412D01*
X166594547Y-135411922D01*
X166602151Y-135408772D01*
X166860219Y-135281508D01*
X166867356Y-135277387D01*
X167106599Y-135117530D01*
X167113139Y-135112512D01*
X167127574Y-135099853D01*
X167135972Y-135086614D01*
X167130138Y-135076849D01*
X165745310Y-133692020D01*
X165731369Y-133684408D01*
X165729534Y-133684539D01*
X165722920Y-133688790D01*
X164336616Y-135075095D01*
X164329101Y-135088856D01*
X153269045Y-135088856D01*
X153274372Y-135027975D01*
X153274372Y-135017025D01*
X153255962Y-134806604D01*
X153254059Y-134795809D01*
X153199391Y-134591785D01*
X153195645Y-134581493D01*
X153106377Y-134390059D01*
X153100897Y-134380568D01*
X153070206Y-134336735D01*
X153059729Y-134328360D01*
X153046282Y-134335428D01*
X152372022Y-135009688D01*
X152364408Y-135023632D01*
X151634356Y-135023632D01*
X151635592Y-135021368D01*
X151635461Y-135019535D01*
X151631210Y-135012920D01*
X150952997Y-134334707D01*
X150941223Y-134328277D01*
X150929207Y-134337574D01*
X150899103Y-134380568D01*
X150893623Y-134390059D01*
X150864471Y-134452575D01*
X150817553Y-134505860D01*
X150749276Y-134525321D01*
X150681316Y-134504779D01*
X150636081Y-134452575D01*
X150606814Y-134389811D01*
X150606811Y-134389806D01*
X150604488Y-134384824D01*
X150601331Y-134380315D01*
X150480136Y-134207230D01*
X150480134Y-134207227D01*
X150476977Y-134202719D01*
X150319781Y-134045523D01*
X150315273Y-134042366D01*
X150315270Y-134042364D01*
X150239505Y-133989313D01*
X150201599Y-133962771D01*
X151305860Y-133962771D01*
X151312928Y-133976218D01*
X151987188Y-134650478D01*
X152001132Y-134658092D01*
X152002965Y-134657961D01*
X152009580Y-134653710D01*
X152687793Y-133975497D01*
X152694223Y-133963723D01*
X152684926Y-133951707D01*
X152641931Y-133921602D01*
X152632445Y-133916124D01*
X152441007Y-133826855D01*
X152430715Y-133823109D01*
X152226691Y-133768441D01*
X152215896Y-133766538D01*
X152005475Y-133748128D01*
X151994525Y-133748128D01*
X151784104Y-133766538D01*
X151773309Y-133768441D01*
X151569285Y-133823109D01*
X151558993Y-133826855D01*
X151367559Y-133916123D01*
X151358068Y-133921603D01*
X151314235Y-133952294D01*
X151305860Y-133962771D01*
X150201599Y-133962771D01*
X150137677Y-133918012D01*
X150132695Y-133915689D01*
X150132690Y-133915686D01*
X149941178Y-133826383D01*
X149941177Y-133826382D01*
X149936196Y-133824060D01*
X149930888Y-133822638D01*
X149930886Y-133822637D01*
X149865051Y-133804997D01*
X149721463Y-133766522D01*
X149500000Y-133747147D01*
X149278537Y-133766522D01*
X149134949Y-133804997D01*
X149069114Y-133822637D01*
X149069112Y-133822638D01*
X149063804Y-133824060D01*
X149058823Y-133826382D01*
X149058822Y-133826383D01*
X148867311Y-133915686D01*
X148867306Y-133915689D01*
X148862324Y-133918012D01*
X148857817Y-133921168D01*
X148857815Y-133921169D01*
X148684730Y-134042364D01*
X148684727Y-134042366D01*
X148680219Y-134045523D01*
X148589095Y-134136647D01*
X148526783Y-134170673D01*
X148455968Y-134165608D01*
X148410905Y-134136647D01*
X148319781Y-134045523D01*
X148315273Y-134042366D01*
X148315270Y-134042364D01*
X148239505Y-133989313D01*
X148137677Y-133918012D01*
X148132695Y-133915689D01*
X148132690Y-133915686D01*
X147941178Y-133826383D01*
X147941177Y-133826382D01*
X147936196Y-133824060D01*
X147930888Y-133822638D01*
X147930886Y-133822637D01*
X147865051Y-133804997D01*
X147721463Y-133766522D01*
X147500000Y-133747147D01*
X147278537Y-133766522D01*
X147134949Y-133804997D01*
X147069114Y-133822637D01*
X147069112Y-133822638D01*
X147063804Y-133824060D01*
X147058823Y-133826382D01*
X147058822Y-133826383D01*
X146867311Y-133915686D01*
X146867306Y-133915689D01*
X146862324Y-133918012D01*
X146857817Y-133921168D01*
X146857815Y-133921169D01*
X146684730Y-134042364D01*
X146684727Y-134042366D01*
X146680219Y-134045523D01*
X146523023Y-134202719D01*
X146495781Y-134241624D01*
X146440326Y-134285952D01*
X146369707Y-134293262D01*
X146306346Y-134261231D01*
X146270361Y-134200030D01*
X146267306Y-134182962D01*
X146265971Y-134170673D01*
X146263745Y-134150184D01*
X146212615Y-134013795D01*
X146125261Y-133897239D01*
X146008705Y-133809885D01*
X145872316Y-133758755D01*
X145810134Y-133752000D01*
X144189866Y-133752000D01*
X144127684Y-133758755D01*
X143991295Y-133809885D01*
X143874739Y-133897239D01*
X143787385Y-134013795D01*
X143736255Y-134150184D01*
X143729500Y-134212366D01*
X143729500Y-135832634D01*
X143150942Y-135832634D01*
X143064856Y-135775113D01*
X143057719Y-135770992D01*
X142799651Y-135643728D01*
X142792047Y-135640578D01*
X142519580Y-135548088D01*
X142511617Y-135545954D01*
X142229400Y-135489817D01*
X142221249Y-135488744D01*
X141934119Y-135469925D01*
X141925881Y-135469925D01*
X141638751Y-135488744D01*
X141630600Y-135489817D01*
X141348383Y-135545954D01*
X141340420Y-135548088D01*
X141067953Y-135640578D01*
X141060349Y-135643728D01*
X140802282Y-135770992D01*
X140795145Y-135775113D01*
X140555901Y-135934970D01*
X140549361Y-135939988D01*
X140534926Y-135952647D01*
X140526528Y-135965886D01*
X121508500Y-135965886D01*
X121508500Y-133324119D01*
X163469925Y-133324119D01*
X163488744Y-133611249D01*
X163489817Y-133619400D01*
X163545954Y-133901617D01*
X163548088Y-133909580D01*
X163640578Y-134182047D01*
X163643728Y-134189651D01*
X163770992Y-134447718D01*
X163775113Y-134454855D01*
X163934970Y-134694099D01*
X163939988Y-134700639D01*
X163952647Y-134715074D01*
X163965886Y-134723472D01*
X163975651Y-134717638D01*
X165360480Y-133332810D01*
X165366857Y-133321131D01*
X166096908Y-133321131D01*
X166097039Y-133322966D01*
X166101290Y-133329580D01*
X167487595Y-134715884D01*
X167501356Y-134723399D01*
X167510716Y-134716941D01*
X167525012Y-134700639D01*
X167530030Y-134694099D01*
X167689887Y-134454855D01*
X167694008Y-134447718D01*
X167821272Y-134189651D01*
X167824422Y-134182047D01*
X167916912Y-133909580D01*
X167919046Y-133901617D01*
X167975183Y-133619400D01*
X167976256Y-133611249D01*
X167995075Y-133324119D01*
X167995075Y-133315881D01*
X167976256Y-133028751D01*
X167975183Y-133020600D01*
X167919046Y-132738383D01*
X167916912Y-132730420D01*
X167824422Y-132457953D01*
X167821272Y-132450349D01*
X167694008Y-132192282D01*
X167689887Y-132185145D01*
X167530030Y-131945901D01*
X167525012Y-131939361D01*
X167512353Y-131924926D01*
X167499114Y-131916528D01*
X167489349Y-131922362D01*
X166104520Y-133307190D01*
X166096908Y-133321131D01*
X165366857Y-133321131D01*
X165368092Y-133318869D01*
X165367961Y-133317034D01*
X165363710Y-133310420D01*
X163977405Y-131924116D01*
X163963644Y-131916601D01*
X163954284Y-131923059D01*
X163939988Y-131939361D01*
X163934970Y-131945901D01*
X163775113Y-132185145D01*
X163770992Y-132192282D01*
X163643728Y-132450349D01*
X163640578Y-132457953D01*
X163548088Y-132730420D01*
X163545954Y-132738383D01*
X163489817Y-133020600D01*
X163488744Y-133028751D01*
X163469925Y-133315881D01*
X163469925Y-133324119D01*
X121508500Y-133324119D01*
X121508500Y-131553386D01*
X164329028Y-131553386D01*
X164334862Y-131563151D01*
X165719690Y-132947980D01*
X165733631Y-132955592D01*
X165735466Y-132955461D01*
X165742080Y-132951210D01*
X167128384Y-131564905D01*
X167135899Y-131551144D01*
X167129441Y-131541784D01*
X167113139Y-131527488D01*
X167106599Y-131522470D01*
X166867356Y-131362613D01*
X166860219Y-131358492D01*
X166602151Y-131231228D01*
X166594547Y-131228078D01*
X166322080Y-131135588D01*
X166314117Y-131133454D01*
X166031900Y-131077317D01*
X166023749Y-131076244D01*
X165736619Y-131057425D01*
X165728381Y-131057425D01*
X165441251Y-131076244D01*
X165433100Y-131077317D01*
X165150883Y-131133454D01*
X165142920Y-131135588D01*
X164870453Y-131228078D01*
X164862849Y-131231228D01*
X164604782Y-131358492D01*
X164597645Y-131362613D01*
X164358401Y-131522470D01*
X164351869Y-131527482D01*
X164337424Y-131540150D01*
X164329028Y-131553386D01*
X121508500Y-131553386D01*
X121508500Y-127750000D01*
X161747147Y-127750000D01*
X161766522Y-127971463D01*
X161824060Y-128186196D01*
X161826382Y-128191177D01*
X161826383Y-128191178D01*
X161915686Y-128382689D01*
X161915689Y-128382694D01*
X161918012Y-128387676D01*
X162045523Y-128569781D01*
X162202719Y-128726977D01*
X162241625Y-128754219D01*
X162285952Y-128809674D01*
X162293262Y-128880293D01*
X162261231Y-128943654D01*
X162200030Y-128979639D01*
X162182962Y-128982694D01*
X162173964Y-128983672D01*
X162150184Y-128986255D01*
X162013795Y-129037385D01*
X161897239Y-129124739D01*
X161809885Y-129241295D01*
X161758755Y-129377684D01*
X161752000Y-129439866D01*
X161752000Y-131060134D01*
X161758755Y-131122316D01*
X161809885Y-131258705D01*
X161897239Y-131375261D01*
X162013795Y-131462615D01*
X162150184Y-131513745D01*
X162212366Y-131520500D01*
X163832634Y-131520500D01*
X163894816Y-131513745D01*
X164031205Y-131462615D01*
X164147761Y-131375261D01*
X164150949Y-131371008D01*
X164150950Y-131371007D01*
X164229729Y-131265892D01*
X164229730Y-131265890D01*
X164235115Y-131258705D01*
X164286245Y-131122316D01*
X164293000Y-131060134D01*
X164293000Y-129439866D01*
X164286245Y-129377684D01*
X164235115Y-129241295D01*
X164147761Y-129124739D01*
X164031205Y-129037385D01*
X163894816Y-128986255D01*
X163871036Y-128983672D01*
X163862038Y-128982694D01*
X163796476Y-128955451D01*
X163756050Y-128897088D01*
X163753596Y-128826134D01*
X163789892Y-128765116D01*
X163803368Y-128754224D01*
X163842281Y-128726977D01*
X163999477Y-128569781D01*
X164126988Y-128387676D01*
X164129311Y-128382694D01*
X164129314Y-128382689D01*
X164218617Y-128191178D01*
X164218618Y-128191177D01*
X164220940Y-128186196D01*
X164278478Y-127971463D01*
X164297853Y-127750000D01*
X164278478Y-127528537D01*
X164220940Y-127313804D01*
X164218617Y-127308822D01*
X164129314Y-127117311D01*
X164129311Y-127117306D01*
X164126988Y-127112324D01*
X163999477Y-126930219D01*
X163908353Y-126839095D01*
X163874327Y-126776783D01*
X163879392Y-126705968D01*
X163908353Y-126660905D01*
X163999477Y-126569781D01*
X164126988Y-126387676D01*
X164129311Y-126382694D01*
X164129314Y-126382689D01*
X164218617Y-126191178D01*
X164218618Y-126191177D01*
X164220940Y-126186196D01*
X164278478Y-125971463D01*
X164297853Y-125750000D01*
X164278478Y-125528537D01*
X164220940Y-125313804D01*
X164218617Y-125308822D01*
X164129314Y-125117311D01*
X164129311Y-125117306D01*
X164126988Y-125112324D01*
X163999477Y-124930219D01*
X163842281Y-124773023D01*
X163837773Y-124769866D01*
X163837770Y-124769864D01*
X163762005Y-124716813D01*
X163660177Y-124645512D01*
X163655195Y-124643189D01*
X163655190Y-124643186D01*
X163592426Y-124613919D01*
X163539141Y-124567001D01*
X163519680Y-124498724D01*
X163540222Y-124430764D01*
X163592426Y-124385529D01*
X163654945Y-124356376D01*
X163664431Y-124350898D01*
X163708264Y-124320207D01*
X163716639Y-124309729D01*
X163709571Y-124296281D01*
X163035312Y-123622022D01*
X163021368Y-123614408D01*
X163019535Y-123614539D01*
X163012920Y-123618790D01*
X162334707Y-124297003D01*
X162328277Y-124308777D01*
X162337574Y-124320793D01*
X162380569Y-124350898D01*
X162390055Y-124356376D01*
X162452575Y-124385529D01*
X162505860Y-124432446D01*
X162525321Y-124500723D01*
X162504779Y-124568683D01*
X162452575Y-124613919D01*
X162389811Y-124643186D01*
X162389806Y-124643189D01*
X162384824Y-124645512D01*
X162380317Y-124648668D01*
X162380315Y-124648669D01*
X162207230Y-124769864D01*
X162207227Y-124769866D01*
X162202719Y-124773023D01*
X162045523Y-124930219D01*
X161918012Y-125112324D01*
X161915689Y-125117306D01*
X161915686Y-125117311D01*
X161826383Y-125308822D01*
X161824060Y-125313804D01*
X161766522Y-125528537D01*
X161747147Y-125750000D01*
X161766522Y-125971463D01*
X161824060Y-126186196D01*
X161826382Y-126191177D01*
X161826383Y-126191178D01*
X161915686Y-126382689D01*
X161915689Y-126382694D01*
X161918012Y-126387676D01*
X162045523Y-126569781D01*
X162136647Y-126660905D01*
X162170673Y-126723217D01*
X162165608Y-126794032D01*
X162136647Y-126839095D01*
X162045523Y-126930219D01*
X161918012Y-127112324D01*
X161915689Y-127117306D01*
X161915686Y-127117311D01*
X161826383Y-127308822D01*
X161824060Y-127313804D01*
X161766522Y-127528537D01*
X161747147Y-127750000D01*
X121508500Y-127750000D01*
X121508500Y-123255475D01*
X161748128Y-123255475D01*
X161766538Y-123465896D01*
X161768441Y-123476691D01*
X161823109Y-123680715D01*
X161826855Y-123691007D01*
X161916123Y-123882441D01*
X161921603Y-123891932D01*
X161952294Y-123935765D01*
X161962771Y-123944140D01*
X161976218Y-123937072D01*
X162650478Y-123262812D01*
X162656856Y-123251132D01*
X163386908Y-123251132D01*
X163387039Y-123252965D01*
X163391290Y-123259580D01*
X164069503Y-123937793D01*
X164081277Y-123944223D01*
X164093293Y-123934926D01*
X164123397Y-123891932D01*
X164128877Y-123882441D01*
X164218145Y-123691007D01*
X164221891Y-123680715D01*
X164276559Y-123476691D01*
X164278462Y-123465896D01*
X164296872Y-123255475D01*
X164296872Y-123244525D01*
X164278462Y-123034104D01*
X164276559Y-123023309D01*
X164221891Y-122819285D01*
X164218145Y-122808993D01*
X164128877Y-122617559D01*
X164123397Y-122608068D01*
X164092706Y-122564235D01*
X164082229Y-122555860D01*
X164068782Y-122562928D01*
X163394522Y-123237188D01*
X163386908Y-123251132D01*
X162656856Y-123251132D01*
X162658092Y-123248868D01*
X162657961Y-123247035D01*
X162653710Y-123240420D01*
X161975497Y-122562207D01*
X161963723Y-122555777D01*
X161951707Y-122565074D01*
X161921603Y-122608068D01*
X161916123Y-122617559D01*
X161826855Y-122808993D01*
X161823109Y-122819285D01*
X161768441Y-123023309D01*
X161766538Y-123034104D01*
X161748128Y-123244525D01*
X161748128Y-123255475D01*
X121508500Y-123255475D01*
X121508500Y-122190271D01*
X162328360Y-122190271D01*
X162335428Y-122203718D01*
X163009688Y-122877978D01*
X163023632Y-122885592D01*
X163025465Y-122885461D01*
X163032080Y-122881210D01*
X163710293Y-122202997D01*
X163716723Y-122191223D01*
X163707426Y-122179207D01*
X163664431Y-122149102D01*
X163654945Y-122143624D01*
X163463507Y-122054355D01*
X163453215Y-122050609D01*
X163249191Y-121995941D01*
X163238396Y-121994038D01*
X163027975Y-121975628D01*
X163017025Y-121975628D01*
X162806604Y-121994038D01*
X162795809Y-121995941D01*
X162591785Y-122050609D01*
X162581493Y-122054355D01*
X162390059Y-122143623D01*
X162380568Y-122149103D01*
X162336735Y-122179794D01*
X162328360Y-122190271D01*
X121508500Y-122190271D01*
X121508500Y-121948856D01*
X164329101Y-121948856D01*
X164335559Y-121958216D01*
X164351861Y-121972512D01*
X164358401Y-121977530D01*
X164597644Y-122137387D01*
X164604781Y-122141508D01*
X164862849Y-122268772D01*
X164870453Y-122271922D01*
X165142920Y-122364412D01*
X165150883Y-122366546D01*
X165433100Y-122422683D01*
X165441251Y-122423756D01*
X165728381Y-122442575D01*
X165736619Y-122442575D01*
X166023749Y-122423756D01*
X166031900Y-122422683D01*
X166314117Y-122366546D01*
X166322080Y-122364412D01*
X166594547Y-122271922D01*
X166602151Y-122268772D01*
X166860219Y-122141508D01*
X166867356Y-122137387D01*
X167106599Y-121977530D01*
X167113139Y-121972512D01*
X167127574Y-121959853D01*
X167135972Y-121946614D01*
X167130138Y-121936849D01*
X165745310Y-120552020D01*
X165731369Y-120544408D01*
X165729534Y-120544539D01*
X165722920Y-120548790D01*
X164336616Y-121935095D01*
X164329101Y-121948856D01*
X121508500Y-121948856D01*
X121508500Y-120184119D01*
X163469925Y-120184119D01*
X163488744Y-120471249D01*
X163489817Y-120479400D01*
X163545954Y-120761617D01*
X163548088Y-120769580D01*
X163640578Y-121042047D01*
X163643728Y-121049651D01*
X163770992Y-121307718D01*
X163775113Y-121314855D01*
X163934970Y-121554099D01*
X163939988Y-121560639D01*
X163952647Y-121575074D01*
X163965886Y-121583472D01*
X163975651Y-121577638D01*
X165360480Y-120192810D01*
X165366857Y-120181131D01*
X166096908Y-120181131D01*
X166097039Y-120182966D01*
X166101290Y-120189580D01*
X167487595Y-121575884D01*
X167501356Y-121583399D01*
X167510716Y-121576941D01*
X167525012Y-121560639D01*
X167530030Y-121554099D01*
X167689887Y-121314855D01*
X167694008Y-121307718D01*
X167821272Y-121049651D01*
X167824422Y-121042047D01*
X167916912Y-120769580D01*
X167919046Y-120761617D01*
X167975183Y-120479400D01*
X167976256Y-120471249D01*
X167995075Y-120184119D01*
X167995075Y-120175881D01*
X167976256Y-119888751D01*
X167975183Y-119880600D01*
X167919046Y-119598383D01*
X167916912Y-119590420D01*
X167824422Y-119317953D01*
X167821272Y-119310349D01*
X167694008Y-119052282D01*
X167689887Y-119045145D01*
X167530030Y-118805901D01*
X167525012Y-118799361D01*
X167512353Y-118784926D01*
X167499114Y-118776528D01*
X167489349Y-118782362D01*
X166104520Y-120167190D01*
X166096908Y-120181131D01*
X165366857Y-120181131D01*
X165368092Y-120178869D01*
X165367961Y-120177034D01*
X165363710Y-120170420D01*
X163977405Y-118784116D01*
X163963644Y-118776601D01*
X163954284Y-118783059D01*
X163939988Y-118799361D01*
X163934970Y-118805901D01*
X163775113Y-119045145D01*
X163770992Y-119052282D01*
X163643728Y-119310349D01*
X163640578Y-119317953D01*
X163548088Y-119590420D01*
X163545954Y-119598383D01*
X163489817Y-119880600D01*
X163488744Y-119888751D01*
X163469925Y-120175881D01*
X163469925Y-120184119D01*
X121508500Y-120184119D01*
X121508500Y-118413386D01*
X164329028Y-118413386D01*
X164334862Y-118423151D01*
X165719690Y-119807980D01*
X165733631Y-119815592D01*
X165735466Y-119815461D01*
X165742080Y-119811210D01*
X167128384Y-118424905D01*
X167135899Y-118411144D01*
X167129441Y-118401784D01*
X167113139Y-118387488D01*
X167106599Y-118382470D01*
X166867356Y-118222613D01*
X166860219Y-118218492D01*
X166602151Y-118091228D01*
X166594547Y-118088078D01*
X166322080Y-117995588D01*
X166314117Y-117993454D01*
X166031900Y-117937317D01*
X166023749Y-117936244D01*
X165736619Y-117917425D01*
X165728381Y-117917425D01*
X165441251Y-117936244D01*
X165433100Y-117937317D01*
X165150883Y-117993454D01*
X165142920Y-117995588D01*
X164870453Y-118088078D01*
X164862849Y-118091228D01*
X164604782Y-118218492D01*
X164597645Y-118222613D01*
X164358401Y-118382470D01*
X164351861Y-118387488D01*
X164337426Y-118400147D01*
X164329028Y-118413386D01*
X121508500Y-118413386D01*
X121508500Y-114750000D01*
X144806693Y-114750000D01*
X144825885Y-114969371D01*
X144882880Y-115182076D01*
X144885205Y-115187061D01*
X144973618Y-115376666D01*
X144973621Y-115376671D01*
X144975944Y-115381653D01*
X145102251Y-115562038D01*
X145257962Y-115717749D01*
X145438346Y-115844056D01*
X145637924Y-115937120D01*
X145850629Y-115994115D01*
X146070000Y-116013307D01*
X146289371Y-115994115D01*
X146502076Y-115937120D01*
X146701654Y-115844056D01*
X146882038Y-115717749D01*
X147037749Y-115562038D01*
X147164056Y-115381653D01*
X147166379Y-115376671D01*
X147166382Y-115376666D01*
X147254795Y-115187061D01*
X147257120Y-115182076D01*
X147314115Y-114969371D01*
X147333307Y-114750000D01*
X149686693Y-114750000D01*
X149705885Y-114969371D01*
X149762880Y-115182076D01*
X149765205Y-115187061D01*
X149853618Y-115376666D01*
X149853621Y-115376671D01*
X149855944Y-115381653D01*
X149982251Y-115562038D01*
X150137962Y-115717749D01*
X150318346Y-115844056D01*
X150517924Y-115937120D01*
X150730629Y-115994115D01*
X150950000Y-116013307D01*
X151169371Y-115994115D01*
X151382076Y-115937120D01*
X151581654Y-115844056D01*
X151762038Y-115717749D01*
X151917749Y-115562038D01*
X152044056Y-115381653D01*
X152046379Y-115376671D01*
X152046382Y-115376666D01*
X152134795Y-115187061D01*
X152137120Y-115182076D01*
X152194115Y-114969371D01*
X152213307Y-114750000D01*
X152194115Y-114530629D01*
X152137120Y-114317924D01*
X152093585Y-114224562D01*
X152046382Y-114123334D01*
X152046379Y-114123329D01*
X152044056Y-114118347D01*
X151917749Y-113937962D01*
X151762038Y-113782251D01*
X151581654Y-113655944D01*
X151382076Y-113562880D01*
X151169371Y-113505885D01*
X150950000Y-113486693D01*
X150730629Y-113505885D01*
X150517924Y-113562880D01*
X150424562Y-113606415D01*
X150323334Y-113653618D01*
X150323329Y-113653621D01*
X150318347Y-113655944D01*
X150313840Y-113659100D01*
X150313838Y-113659101D01*
X150142473Y-113779092D01*
X150142470Y-113779094D01*
X150137962Y-113782251D01*
X149982251Y-113937962D01*
X149855944Y-114118347D01*
X149853621Y-114123329D01*
X149853618Y-114123334D01*
X149806415Y-114224562D01*
X149762880Y-114317924D01*
X149705885Y-114530629D01*
X149686693Y-114750000D01*
X147333307Y-114750000D01*
X147314115Y-114530629D01*
X147257120Y-114317924D01*
X147213585Y-114224562D01*
X147166382Y-114123334D01*
X147166379Y-114123329D01*
X147164056Y-114118347D01*
X147037749Y-113937962D01*
X146882038Y-113782251D01*
X146701654Y-113655944D01*
X146502076Y-113562880D01*
X146289371Y-113505885D01*
X146070000Y-113486693D01*
X145850629Y-113505885D01*
X145637924Y-113562880D01*
X145544562Y-113606415D01*
X145443334Y-113653618D01*
X145443329Y-113653621D01*
X145438347Y-113655944D01*
X145433840Y-113659100D01*
X145433838Y-113659101D01*
X145262473Y-113779092D01*
X145262470Y-113779094D01*
X145257962Y-113782251D01*
X145102251Y-113937962D01*
X144975944Y-114118347D01*
X144973621Y-114123329D01*
X144973618Y-114123334D01*
X144926415Y-114224562D01*
X144882880Y-114317924D01*
X144825885Y-114530629D01*
X144806693Y-114750000D01*
X121508500Y-114750000D01*
X121508500Y-107747064D01*
X125962707Y-107747064D01*
X125991825Y-107939599D01*
X125994028Y-107945585D01*
X125994029Y-107945591D01*
X126056860Y-108116360D01*
X126056862Y-108116365D01*
X126059063Y-108122346D01*
X126161674Y-108287840D01*
X126295466Y-108429322D01*
X126454975Y-108541011D01*
X126460838Y-108543548D01*
X126627825Y-108615810D01*
X126627829Y-108615811D01*
X126633684Y-108618345D01*
X126639931Y-108619650D01*
X126639934Y-108619651D01*
X126819557Y-108657176D01*
X126819562Y-108657177D01*
X126824293Y-108658165D01*
X126830685Y-108658500D01*
X126973663Y-108658500D01*
X127042951Y-108651462D01*
X127112378Y-108644410D01*
X127112379Y-108644410D01*
X127118727Y-108643765D01*
X127199843Y-108618345D01*
X127298451Y-108587444D01*
X127298456Y-108587442D01*
X127304541Y-108585535D01*
X127391475Y-108537346D01*
X127469271Y-108494223D01*
X127469274Y-108494221D01*
X127474850Y-108491130D01*
X127479691Y-108486981D01*
X127479695Y-108486978D01*
X127617855Y-108368560D01*
X127622698Y-108364409D01*
X127742046Y-108210547D01*
X127782779Y-108127768D01*
X127825200Y-108041556D01*
X127828018Y-108035829D01*
X127829628Y-108029649D01*
X127875492Y-107853575D01*
X127875492Y-107853572D01*
X127877102Y-107847393D01*
X127887293Y-107652936D01*
X127858175Y-107460401D01*
X127855972Y-107454415D01*
X127855971Y-107454409D01*
X127793140Y-107283640D01*
X127793138Y-107283635D01*
X127790937Y-107277654D01*
X127688326Y-107112160D01*
X127554534Y-106970678D01*
X127395025Y-106858989D01*
X127347013Y-106838212D01*
X127222175Y-106784190D01*
X127222171Y-106784189D01*
X127216316Y-106781655D01*
X127210069Y-106780350D01*
X127210066Y-106780349D01*
X127030443Y-106742824D01*
X127030438Y-106742823D01*
X127025707Y-106741835D01*
X127019315Y-106741500D01*
X126876337Y-106741500D01*
X126807049Y-106748538D01*
X126737622Y-106755590D01*
X126737621Y-106755590D01*
X126731273Y-106756235D01*
X126674939Y-106773889D01*
X126551549Y-106812556D01*
X126551544Y-106812558D01*
X126545459Y-106814465D01*
X126469713Y-106856452D01*
X126380729Y-106905777D01*
X126380726Y-106905779D01*
X126375150Y-106908870D01*
X126370309Y-106913019D01*
X126370305Y-106913022D01*
X126307311Y-106967015D01*
X126227302Y-107035591D01*
X126107954Y-107189453D01*
X126105138Y-107195176D01*
X126105136Y-107195179D01*
X126061608Y-107283640D01*
X126021982Y-107364171D01*
X126020373Y-107370349D01*
X126020372Y-107370351D01*
X125998477Y-107454409D01*
X125972898Y-107552607D01*
X125962707Y-107747064D01*
X121508500Y-107747064D01*
X121508500Y-103347064D01*
X125962707Y-103347064D01*
X125991825Y-103539599D01*
X125994028Y-103545585D01*
X125994029Y-103545591D01*
X126056860Y-103716360D01*
X126056862Y-103716365D01*
X126059063Y-103722346D01*
X126161674Y-103887840D01*
X126295466Y-104029322D01*
X126454975Y-104141011D01*
X126460838Y-104143548D01*
X126627825Y-104215810D01*
X126627829Y-104215811D01*
X126633684Y-104218345D01*
X126639931Y-104219650D01*
X126639934Y-104219651D01*
X126819557Y-104257176D01*
X126819562Y-104257177D01*
X126824293Y-104258165D01*
X126830685Y-104258500D01*
X126973663Y-104258500D01*
X127042951Y-104251462D01*
X127112378Y-104244410D01*
X127112379Y-104244410D01*
X127118727Y-104243765D01*
X127199843Y-104218345D01*
X127298451Y-104187444D01*
X127298456Y-104187442D01*
X127304541Y-104185535D01*
X127391475Y-104137346D01*
X127469271Y-104094223D01*
X127469274Y-104094221D01*
X127474850Y-104091130D01*
X127479691Y-104086981D01*
X127479695Y-104086978D01*
X127617855Y-103968560D01*
X127622698Y-103964409D01*
X127742046Y-103810547D01*
X127782779Y-103727768D01*
X127825200Y-103641556D01*
X127828018Y-103635829D01*
X127829628Y-103629649D01*
X127875492Y-103453575D01*
X127875492Y-103453572D01*
X127877102Y-103447393D01*
X127887293Y-103252936D01*
X127858175Y-103060401D01*
X127855972Y-103054415D01*
X127855971Y-103054409D01*
X127793140Y-102883640D01*
X127793138Y-102883635D01*
X127790937Y-102877654D01*
X127688326Y-102712160D01*
X127554534Y-102570678D01*
X127395025Y-102458989D01*
X127347013Y-102438212D01*
X127222175Y-102384190D01*
X127222171Y-102384189D01*
X127216316Y-102381655D01*
X127210069Y-102380350D01*
X127210066Y-102380349D01*
X127030443Y-102342824D01*
X127030438Y-102342823D01*
X127025707Y-102341835D01*
X127019315Y-102341500D01*
X126876337Y-102341500D01*
X126807049Y-102348538D01*
X126737622Y-102355590D01*
X126737621Y-102355590D01*
X126731273Y-102356235D01*
X126674939Y-102373889D01*
X126551549Y-102412556D01*
X126551544Y-102412558D01*
X126545459Y-102414465D01*
X126469713Y-102456452D01*
X126380729Y-102505777D01*
X126380726Y-102505779D01*
X126375150Y-102508870D01*
X126370309Y-102513019D01*
X126370305Y-102513022D01*
X126307311Y-102567015D01*
X126227302Y-102635591D01*
X126107954Y-102789453D01*
X126105138Y-102795176D01*
X126105136Y-102795179D01*
X126061608Y-102883640D01*
X126021982Y-102964171D01*
X126020373Y-102970349D01*
X126020372Y-102970351D01*
X125998477Y-103054409D01*
X125972898Y-103152607D01*
X125962707Y-103347064D01*
X121508500Y-103347064D01*
X121508500Y-92588856D01*
X164329101Y-92588856D01*
X164335559Y-92598216D01*
X164351861Y-92612512D01*
X164358401Y-92617530D01*
X164597644Y-92777387D01*
X164604781Y-92781508D01*
X164862849Y-92908772D01*
X164870453Y-92911922D01*
X165142920Y-93004412D01*
X165150883Y-93006546D01*
X165433100Y-93062683D01*
X165441251Y-93063756D01*
X165728381Y-93082575D01*
X165736619Y-93082575D01*
X166023749Y-93063756D01*
X166031900Y-93062683D01*
X166314117Y-93006546D01*
X166322080Y-93004412D01*
X166594547Y-92911922D01*
X166602151Y-92908772D01*
X166860219Y-92781508D01*
X166867356Y-92777387D01*
X167106599Y-92617530D01*
X167113139Y-92612512D01*
X167127574Y-92599853D01*
X167135972Y-92586614D01*
X167130138Y-92576849D01*
X165745310Y-91192020D01*
X165731369Y-91184408D01*
X165729534Y-91184539D01*
X165722920Y-91188790D01*
X164336616Y-92575095D01*
X164329101Y-92588856D01*
X121508500Y-92588856D01*
X121508500Y-90824119D01*
X163469925Y-90824119D01*
X163488744Y-91111249D01*
X163489817Y-91119400D01*
X163545954Y-91401617D01*
X163548088Y-91409580D01*
X163640578Y-91682047D01*
X163643728Y-91689651D01*
X163770992Y-91947718D01*
X163775113Y-91954855D01*
X163934970Y-92194099D01*
X163939988Y-92200639D01*
X163952647Y-92215074D01*
X163965886Y-92223472D01*
X163975651Y-92217638D01*
X165360480Y-90832810D01*
X165366857Y-90821131D01*
X166096908Y-90821131D01*
X166097039Y-90822966D01*
X166101290Y-90829580D01*
X167487595Y-92215884D01*
X167501356Y-92223399D01*
X167510716Y-92216941D01*
X167525012Y-92200639D01*
X167530030Y-92194099D01*
X167689887Y-91954855D01*
X167694008Y-91947718D01*
X167821272Y-91689651D01*
X167824422Y-91682047D01*
X167916912Y-91409580D01*
X167919046Y-91401617D01*
X167975183Y-91119400D01*
X167976256Y-91111249D01*
X167995075Y-90824119D01*
X167995075Y-90815881D01*
X167976256Y-90528751D01*
X167975183Y-90520600D01*
X167919046Y-90238383D01*
X167916912Y-90230420D01*
X167824422Y-89957953D01*
X167821272Y-89950349D01*
X167694008Y-89692282D01*
X167689887Y-89685145D01*
X167530030Y-89445901D01*
X167525012Y-89439361D01*
X167512353Y-89424926D01*
X167499114Y-89416528D01*
X167489349Y-89422362D01*
X166104520Y-90807190D01*
X166096908Y-90821131D01*
X165366857Y-90821131D01*
X165368092Y-90818869D01*
X165367961Y-90817034D01*
X165363710Y-90810420D01*
X163977405Y-89424116D01*
X163963644Y-89416601D01*
X163954284Y-89423059D01*
X163939988Y-89439361D01*
X163934970Y-89445901D01*
X163775113Y-89685145D01*
X163770992Y-89692282D01*
X163643728Y-89950349D01*
X163640578Y-89957953D01*
X163548088Y-90230420D01*
X163545954Y-90238383D01*
X163489817Y-90520600D01*
X163488744Y-90528751D01*
X163469925Y-90815881D01*
X163469925Y-90824119D01*
X121508500Y-90824119D01*
X121508500Y-89053386D01*
X164329028Y-89053386D01*
X164334862Y-89063151D01*
X165719690Y-90447980D01*
X165733631Y-90455592D01*
X165735466Y-90455461D01*
X165742080Y-90451210D01*
X167128384Y-89064905D01*
X167135899Y-89051144D01*
X167129441Y-89041784D01*
X167113139Y-89027488D01*
X167106599Y-89022470D01*
X166867356Y-88862613D01*
X166860219Y-88858492D01*
X166602151Y-88731228D01*
X166594547Y-88728078D01*
X166322080Y-88635588D01*
X166314117Y-88633454D01*
X166031900Y-88577317D01*
X166023749Y-88576244D01*
X165736619Y-88557425D01*
X165728381Y-88557425D01*
X165441251Y-88576244D01*
X165433100Y-88577317D01*
X165150883Y-88633454D01*
X165142920Y-88635588D01*
X164870453Y-88728078D01*
X164862849Y-88731228D01*
X164604782Y-88858492D01*
X164597645Y-88862613D01*
X164358401Y-89022470D01*
X164351869Y-89027482D01*
X164337424Y-89040150D01*
X164329028Y-89053386D01*
X121508500Y-89053386D01*
X121508500Y-85250000D01*
X161747147Y-85250000D01*
X161766522Y-85471463D01*
X161824060Y-85686196D01*
X161826382Y-85691177D01*
X161826383Y-85691178D01*
X161915686Y-85882689D01*
X161915689Y-85882694D01*
X161918012Y-85887676D01*
X162045523Y-86069781D01*
X162202719Y-86226977D01*
X162241625Y-86254219D01*
X162285952Y-86309674D01*
X162293262Y-86380293D01*
X162261231Y-86443654D01*
X162200030Y-86479639D01*
X162182962Y-86482694D01*
X162173964Y-86483672D01*
X162150184Y-86486255D01*
X162013795Y-86537385D01*
X161897239Y-86624739D01*
X161809885Y-86741295D01*
X161758755Y-86877684D01*
X161752000Y-86939866D01*
X161752000Y-88560134D01*
X161758755Y-88622316D01*
X161809885Y-88758705D01*
X161897239Y-88875261D01*
X162013795Y-88962615D01*
X162150184Y-89013745D01*
X162212366Y-89020500D01*
X163832634Y-89020500D01*
X163894816Y-89013745D01*
X164031205Y-88962615D01*
X164147761Y-88875261D01*
X164150949Y-88871008D01*
X164150950Y-88871007D01*
X164229729Y-88765892D01*
X164229730Y-88765890D01*
X164235115Y-88758705D01*
X164286245Y-88622316D01*
X164293000Y-88560134D01*
X164293000Y-86939866D01*
X164286245Y-86877684D01*
X164235115Y-86741295D01*
X164147761Y-86624739D01*
X164031205Y-86537385D01*
X163894816Y-86486255D01*
X163871036Y-86483672D01*
X163862038Y-86482694D01*
X163796476Y-86455451D01*
X163756050Y-86397088D01*
X163753596Y-86326134D01*
X163789892Y-86265116D01*
X163803368Y-86254224D01*
X163842281Y-86226977D01*
X163999477Y-86069781D01*
X164126988Y-85887676D01*
X164129311Y-85882694D01*
X164129314Y-85882689D01*
X164218617Y-85691178D01*
X164218618Y-85691177D01*
X164220940Y-85686196D01*
X164278478Y-85471463D01*
X164297853Y-85250000D01*
X164278478Y-85028537D01*
X164220940Y-84813804D01*
X164218617Y-84808822D01*
X164129314Y-84617311D01*
X164129311Y-84617306D01*
X164126988Y-84612324D01*
X163999477Y-84430219D01*
X163908353Y-84339095D01*
X163874327Y-84276783D01*
X163879392Y-84205968D01*
X163908353Y-84160905D01*
X163999477Y-84069781D01*
X164126988Y-83887676D01*
X164129311Y-83882694D01*
X164129314Y-83882689D01*
X164218617Y-83691178D01*
X164218618Y-83691177D01*
X164220940Y-83686196D01*
X164278478Y-83471463D01*
X164297853Y-83250000D01*
X164278478Y-83028537D01*
X164220940Y-82813804D01*
X164218617Y-82808822D01*
X164129314Y-82617311D01*
X164129311Y-82617306D01*
X164126988Y-82612324D01*
X163999477Y-82430219D01*
X163842281Y-82273023D01*
X163837773Y-82269866D01*
X163837770Y-82269864D01*
X163762005Y-82216813D01*
X163660177Y-82145512D01*
X163655195Y-82143189D01*
X163655190Y-82143186D01*
X163592426Y-82113919D01*
X163539141Y-82067001D01*
X163519680Y-81998724D01*
X163540222Y-81930764D01*
X163592426Y-81885529D01*
X163654945Y-81856376D01*
X163664431Y-81850898D01*
X163708264Y-81820207D01*
X163716639Y-81809729D01*
X163709571Y-81796281D01*
X163035312Y-81122022D01*
X163021368Y-81114408D01*
X163019535Y-81114539D01*
X163012920Y-81118790D01*
X162334707Y-81797003D01*
X162328277Y-81808777D01*
X162337574Y-81820793D01*
X162380569Y-81850898D01*
X162390055Y-81856376D01*
X162452575Y-81885529D01*
X162505860Y-81932446D01*
X162525321Y-82000723D01*
X162504779Y-82068683D01*
X162452575Y-82113919D01*
X162389811Y-82143186D01*
X162389806Y-82143189D01*
X162384824Y-82145512D01*
X162380317Y-82148668D01*
X162380315Y-82148669D01*
X162207230Y-82269864D01*
X162207227Y-82269866D01*
X162202719Y-82273023D01*
X162045523Y-82430219D01*
X161918012Y-82612324D01*
X161915689Y-82617306D01*
X161915686Y-82617311D01*
X161826383Y-82808822D01*
X161824060Y-82813804D01*
X161766522Y-83028537D01*
X161747147Y-83250000D01*
X161766522Y-83471463D01*
X161824060Y-83686196D01*
X161826382Y-83691177D01*
X161826383Y-83691178D01*
X161915686Y-83882689D01*
X161915689Y-83882694D01*
X161918012Y-83887676D01*
X162045523Y-84069781D01*
X162136647Y-84160905D01*
X162170673Y-84223217D01*
X162165608Y-84294032D01*
X162136647Y-84339095D01*
X162045523Y-84430219D01*
X161918012Y-84612324D01*
X161915689Y-84617306D01*
X161915686Y-84617311D01*
X161826383Y-84808822D01*
X161824060Y-84813804D01*
X161766522Y-85028537D01*
X161747147Y-85250000D01*
X121508500Y-85250000D01*
X121508500Y-80755475D01*
X161748128Y-80755475D01*
X161766538Y-80965896D01*
X161768441Y-80976691D01*
X161823109Y-81180715D01*
X161826855Y-81191007D01*
X161916123Y-81382441D01*
X161921603Y-81391932D01*
X161952294Y-81435765D01*
X161962771Y-81444140D01*
X161976218Y-81437072D01*
X162650478Y-80762812D01*
X162656856Y-80751132D01*
X163386908Y-80751132D01*
X163387039Y-80752965D01*
X163391290Y-80759580D01*
X164069503Y-81437793D01*
X164081277Y-81444223D01*
X164093293Y-81434926D01*
X164123397Y-81391932D01*
X164128877Y-81382441D01*
X164218145Y-81191007D01*
X164221891Y-81180715D01*
X164276559Y-80976691D01*
X164278462Y-80965896D01*
X164296872Y-80755475D01*
X164296872Y-80744525D01*
X164278462Y-80534104D01*
X164276559Y-80523309D01*
X164221891Y-80319285D01*
X164218145Y-80308993D01*
X164128877Y-80117559D01*
X164123397Y-80108068D01*
X164092706Y-80064235D01*
X164082229Y-80055860D01*
X164068782Y-80062928D01*
X163394522Y-80737188D01*
X163386908Y-80751132D01*
X162656856Y-80751132D01*
X162658092Y-80748868D01*
X162657961Y-80747035D01*
X162653710Y-80740420D01*
X161975497Y-80062207D01*
X161963723Y-80055777D01*
X161951707Y-80065074D01*
X161921603Y-80108068D01*
X161916123Y-80117559D01*
X161826855Y-80308993D01*
X161823109Y-80319285D01*
X161768441Y-80523309D01*
X161766538Y-80534104D01*
X161748128Y-80744525D01*
X161748128Y-80755475D01*
X121508500Y-80755475D01*
X121508500Y-79690271D01*
X162328360Y-79690271D01*
X162335428Y-79703718D01*
X163009688Y-80377978D01*
X163023632Y-80385592D01*
X163025465Y-80385461D01*
X163032080Y-80381210D01*
X163710293Y-79702997D01*
X163716723Y-79691223D01*
X163707426Y-79679207D01*
X163664431Y-79649102D01*
X163654945Y-79643624D01*
X163463507Y-79554355D01*
X163453215Y-79550609D01*
X163249191Y-79495941D01*
X163238396Y-79494038D01*
X163027975Y-79475628D01*
X163017025Y-79475628D01*
X162806604Y-79494038D01*
X162795809Y-79495941D01*
X162591785Y-79550609D01*
X162581493Y-79554355D01*
X162390059Y-79643623D01*
X162380568Y-79649103D01*
X162336735Y-79679794D01*
X162328360Y-79690271D01*
X121508500Y-79690271D01*
X121508500Y-79448856D01*
X164329101Y-79448856D01*
X164335559Y-79458216D01*
X164351861Y-79472512D01*
X164358401Y-79477530D01*
X164597644Y-79637387D01*
X164604781Y-79641508D01*
X164862849Y-79768772D01*
X164870453Y-79771922D01*
X165142920Y-79864412D01*
X165150883Y-79866546D01*
X165433100Y-79922683D01*
X165441251Y-79923756D01*
X165728381Y-79942575D01*
X165736619Y-79942575D01*
X166023749Y-79923756D01*
X166031900Y-79922683D01*
X166314117Y-79866546D01*
X166322080Y-79864412D01*
X166594547Y-79771922D01*
X166602151Y-79768772D01*
X166860219Y-79641508D01*
X166867356Y-79637387D01*
X167106599Y-79477530D01*
X167113139Y-79472512D01*
X167127574Y-79459853D01*
X167135972Y-79446614D01*
X167130138Y-79436849D01*
X165745310Y-78052020D01*
X165731369Y-78044408D01*
X165729534Y-78044539D01*
X165722920Y-78048790D01*
X164336616Y-79435095D01*
X164329101Y-79448856D01*
X121508500Y-79448856D01*
X121508500Y-77684119D01*
X163469925Y-77684119D01*
X163488744Y-77971249D01*
X163489817Y-77979400D01*
X163545954Y-78261617D01*
X163548088Y-78269580D01*
X163640578Y-78542047D01*
X163643728Y-78549651D01*
X163770992Y-78807718D01*
X163775113Y-78814855D01*
X163934970Y-79054099D01*
X163939988Y-79060639D01*
X163952647Y-79075074D01*
X163965886Y-79083472D01*
X163975651Y-79077638D01*
X165360480Y-77692810D01*
X165366857Y-77681131D01*
X166096908Y-77681131D01*
X166097039Y-77682966D01*
X166101290Y-77689580D01*
X167487595Y-79075884D01*
X167501356Y-79083399D01*
X167510716Y-79076941D01*
X167525012Y-79060639D01*
X167530030Y-79054099D01*
X167689887Y-78814855D01*
X167694008Y-78807718D01*
X167821272Y-78549651D01*
X167824422Y-78542047D01*
X167916912Y-78269580D01*
X167919046Y-78261617D01*
X167975183Y-77979400D01*
X167976256Y-77971249D01*
X167995075Y-77684119D01*
X167995075Y-77675881D01*
X167976256Y-77388751D01*
X167975183Y-77380600D01*
X167919046Y-77098383D01*
X167916912Y-77090420D01*
X167824422Y-76817953D01*
X167821272Y-76810349D01*
X167694008Y-76552282D01*
X167689887Y-76545145D01*
X167530030Y-76305901D01*
X167525012Y-76299361D01*
X167512353Y-76284926D01*
X167499114Y-76276528D01*
X167489349Y-76282362D01*
X166104520Y-77667190D01*
X166096908Y-77681131D01*
X165366857Y-77681131D01*
X165368092Y-77678869D01*
X165367961Y-77677034D01*
X165363710Y-77670420D01*
X163977405Y-76284116D01*
X163963644Y-76276601D01*
X163954284Y-76283059D01*
X163939988Y-76299361D01*
X163934970Y-76305901D01*
X163775113Y-76545145D01*
X163770992Y-76552282D01*
X163643728Y-76810349D01*
X163640578Y-76817953D01*
X163548088Y-77090420D01*
X163545954Y-77098383D01*
X163489817Y-77380600D01*
X163488744Y-77388751D01*
X163469925Y-77675881D01*
X163469925Y-77684119D01*
X121508500Y-77684119D01*
X121508500Y-77036277D01*
X144305777Y-77036277D01*
X144315074Y-77048293D01*
X144358069Y-77078398D01*
X144367555Y-77083876D01*
X144558993Y-77173145D01*
X144569285Y-77176891D01*
X144773309Y-77231559D01*
X144784104Y-77233462D01*
X144994525Y-77251872D01*
X145005475Y-77251872D01*
X145215896Y-77233462D01*
X145226691Y-77231559D01*
X145430715Y-77176891D01*
X145441007Y-77173145D01*
X145632445Y-77083876D01*
X145641931Y-77078398D01*
X145685764Y-77047707D01*
X145694139Y-77037229D01*
X145687071Y-77023781D01*
X145012812Y-76349522D01*
X144998868Y-76341908D01*
X144997035Y-76342039D01*
X144990420Y-76346290D01*
X144312207Y-77024503D01*
X144305777Y-77036277D01*
X121508500Y-77036277D01*
X121508500Y-75982975D01*
X143725628Y-75982975D01*
X143744038Y-76193396D01*
X143745941Y-76204191D01*
X143800609Y-76408215D01*
X143804355Y-76418507D01*
X143893623Y-76609941D01*
X143899103Y-76619432D01*
X143929794Y-76663265D01*
X143940271Y-76671640D01*
X143953718Y-76664572D01*
X144627978Y-75990312D01*
X144634356Y-75978632D01*
X145364408Y-75978632D01*
X145364539Y-75980465D01*
X145368790Y-75987080D01*
X146047003Y-76665293D01*
X146058777Y-76671723D01*
X146070793Y-76662426D01*
X146100897Y-76619432D01*
X146106377Y-76609941D01*
X146135529Y-76547425D01*
X146182447Y-76494140D01*
X146250724Y-76474679D01*
X146318684Y-76495221D01*
X146363919Y-76547425D01*
X146393186Y-76610189D01*
X146393189Y-76610194D01*
X146395512Y-76615176D01*
X146398668Y-76619683D01*
X146398669Y-76619685D01*
X146518647Y-76791031D01*
X146523023Y-76797281D01*
X146680219Y-76954477D01*
X146684727Y-76957634D01*
X146684730Y-76957636D01*
X146713523Y-76977797D01*
X146862323Y-77081988D01*
X146867305Y-77084311D01*
X146867310Y-77084314D01*
X147057810Y-77173145D01*
X147063804Y-77175940D01*
X147069112Y-77177362D01*
X147069114Y-77177363D01*
X147116705Y-77190115D01*
X147278537Y-77233478D01*
X147500000Y-77252853D01*
X147721463Y-77233478D01*
X147883295Y-77190115D01*
X147930886Y-77177363D01*
X147930888Y-77177362D01*
X147936196Y-77175940D01*
X147942190Y-77173145D01*
X148132690Y-77084314D01*
X148132695Y-77084311D01*
X148137677Y-77081988D01*
X148286477Y-76977797D01*
X148315270Y-76957636D01*
X148315273Y-76957634D01*
X148319781Y-76954477D01*
X148410905Y-76863353D01*
X148473217Y-76829327D01*
X148544032Y-76834392D01*
X148589095Y-76863353D01*
X148680219Y-76954477D01*
X148684727Y-76957634D01*
X148684730Y-76957636D01*
X148713523Y-76977797D01*
X148862323Y-77081988D01*
X148867305Y-77084311D01*
X148867310Y-77084314D01*
X149057810Y-77173145D01*
X149063804Y-77175940D01*
X149069112Y-77177362D01*
X149069114Y-77177363D01*
X149116705Y-77190115D01*
X149278537Y-77233478D01*
X149500000Y-77252853D01*
X149721463Y-77233478D01*
X149883295Y-77190115D01*
X149930886Y-77177363D01*
X149930888Y-77177362D01*
X149936196Y-77175940D01*
X149942190Y-77173145D01*
X150132690Y-77084314D01*
X150132695Y-77084311D01*
X150137677Y-77081988D01*
X150286477Y-76977797D01*
X150315270Y-76957636D01*
X150315273Y-76957634D01*
X150319781Y-76954477D01*
X150476977Y-76797281D01*
X150504219Y-76758376D01*
X150559674Y-76714048D01*
X150630293Y-76706738D01*
X150693654Y-76738769D01*
X150729639Y-76799970D01*
X150732694Y-76817038D01*
X150733672Y-76826036D01*
X150736255Y-76849816D01*
X150787385Y-76986205D01*
X150874739Y-77102761D01*
X150991295Y-77190115D01*
X151127684Y-77241245D01*
X151189866Y-77248000D01*
X152810134Y-77248000D01*
X152872316Y-77241245D01*
X153008705Y-77190115D01*
X153125261Y-77102761D01*
X153212615Y-76986205D01*
X153263745Y-76849816D01*
X153270500Y-76787634D01*
X153270500Y-75913386D01*
X164329028Y-75913386D01*
X164334862Y-75923151D01*
X165719690Y-77307980D01*
X165733631Y-77315592D01*
X165735466Y-77315461D01*
X165742080Y-77311210D01*
X167128384Y-75924905D01*
X167135899Y-75911144D01*
X167129441Y-75901784D01*
X167113139Y-75887488D01*
X167106599Y-75882470D01*
X166867356Y-75722613D01*
X166860219Y-75718492D01*
X166602151Y-75591228D01*
X166594547Y-75588078D01*
X166322080Y-75495588D01*
X166314117Y-75493454D01*
X166031900Y-75437317D01*
X166023749Y-75436244D01*
X165736619Y-75417425D01*
X165728381Y-75417425D01*
X165441251Y-75436244D01*
X165433100Y-75437317D01*
X165150883Y-75493454D01*
X165142920Y-75495588D01*
X164870453Y-75588078D01*
X164862849Y-75591228D01*
X164604782Y-75718492D01*
X164597645Y-75722613D01*
X164358401Y-75882470D01*
X164351861Y-75887488D01*
X164337426Y-75900147D01*
X164329028Y-75913386D01*
X153270500Y-75913386D01*
X153270500Y-75167366D01*
X153263745Y-75105184D01*
X153237943Y-75036356D01*
X153666601Y-75036356D01*
X153673059Y-75045716D01*
X153689361Y-75060012D01*
X153695901Y-75065030D01*
X153935144Y-75224887D01*
X153942281Y-75229008D01*
X154200349Y-75356272D01*
X154207953Y-75359422D01*
X154480420Y-75451912D01*
X154488383Y-75454046D01*
X154770600Y-75510183D01*
X154778751Y-75511256D01*
X155065881Y-75530075D01*
X155074119Y-75530075D01*
X155361249Y-75511256D01*
X155369400Y-75510183D01*
X155651617Y-75454046D01*
X155659580Y-75451912D01*
X155932047Y-75359422D01*
X155939651Y-75356272D01*
X156197719Y-75229008D01*
X156204856Y-75224887D01*
X156444099Y-75065030D01*
X156450639Y-75060012D01*
X156465074Y-75047353D01*
X156473472Y-75034114D01*
X156467638Y-75024349D01*
X155082810Y-73639520D01*
X155068869Y-73631908D01*
X155067034Y-73632039D01*
X155060420Y-73636290D01*
X153674116Y-75022595D01*
X153666601Y-75036356D01*
X153237943Y-75036356D01*
X153212615Y-74968795D01*
X153125261Y-74852239D01*
X153121008Y-74849051D01*
X153121007Y-74849050D01*
X153015892Y-74770271D01*
X153015890Y-74770270D01*
X153008705Y-74764885D01*
X152872316Y-74713755D01*
X152810134Y-74707000D01*
X151189866Y-74707000D01*
X151127684Y-74713755D01*
X150991295Y-74764885D01*
X150874739Y-74852239D01*
X150787385Y-74968795D01*
X150736255Y-75105184D01*
X150734029Y-75125673D01*
X150732694Y-75137962D01*
X150705451Y-75203524D01*
X150647088Y-75243950D01*
X150576134Y-75246404D01*
X150515116Y-75210108D01*
X150504223Y-75196631D01*
X150476977Y-75157719D01*
X150319781Y-75000523D01*
X150315273Y-74997366D01*
X150315270Y-74997364D01*
X150239505Y-74944313D01*
X150137677Y-74873012D01*
X150132695Y-74870689D01*
X150132690Y-74870686D01*
X149941178Y-74781383D01*
X149941177Y-74781382D01*
X149936196Y-74779060D01*
X149930888Y-74777638D01*
X149930886Y-74777637D01*
X149865051Y-74759997D01*
X149721463Y-74721522D01*
X149500000Y-74702147D01*
X149278537Y-74721522D01*
X149134949Y-74759997D01*
X149069114Y-74777637D01*
X149069112Y-74777638D01*
X149063804Y-74779060D01*
X149058823Y-74781382D01*
X149058822Y-74781383D01*
X148867311Y-74870686D01*
X148867306Y-74870689D01*
X148862324Y-74873012D01*
X148857817Y-74876168D01*
X148857815Y-74876169D01*
X148684730Y-74997364D01*
X148684727Y-74997366D01*
X148680219Y-75000523D01*
X148589095Y-75091647D01*
X148526783Y-75125673D01*
X148455968Y-75120608D01*
X148410905Y-75091647D01*
X148319781Y-75000523D01*
X148315273Y-74997366D01*
X148315270Y-74997364D01*
X148239505Y-74944313D01*
X148137677Y-74873012D01*
X148132695Y-74870689D01*
X148132690Y-74870686D01*
X147941178Y-74781383D01*
X147941177Y-74781382D01*
X147936196Y-74779060D01*
X147930888Y-74777638D01*
X147930886Y-74777637D01*
X147865051Y-74759997D01*
X147721463Y-74721522D01*
X147500000Y-74702147D01*
X147278537Y-74721522D01*
X147134949Y-74759997D01*
X147069114Y-74777637D01*
X147069112Y-74777638D01*
X147063804Y-74779060D01*
X147058823Y-74781382D01*
X147058822Y-74781383D01*
X146867311Y-74870686D01*
X146867306Y-74870689D01*
X146862324Y-74873012D01*
X146857817Y-74876168D01*
X146857815Y-74876169D01*
X146684730Y-74997364D01*
X146684727Y-74997366D01*
X146680219Y-75000523D01*
X146523023Y-75157719D01*
X146519866Y-75162227D01*
X146519864Y-75162230D01*
X146398669Y-75335315D01*
X146395512Y-75339824D01*
X146393189Y-75344806D01*
X146393186Y-75344811D01*
X146363919Y-75407575D01*
X146317001Y-75460860D01*
X146248724Y-75480321D01*
X146180764Y-75459779D01*
X146135529Y-75407575D01*
X146106377Y-75345059D01*
X146100897Y-75335568D01*
X146070206Y-75291735D01*
X146059729Y-75283360D01*
X146046282Y-75290428D01*
X145372022Y-75964688D01*
X145364408Y-75978632D01*
X144634356Y-75978632D01*
X144635592Y-75976368D01*
X144635461Y-75974535D01*
X144631210Y-75967920D01*
X143952997Y-75289707D01*
X143941223Y-75283277D01*
X143929207Y-75292574D01*
X143899103Y-75335568D01*
X143893623Y-75345059D01*
X143804355Y-75536493D01*
X143800609Y-75546785D01*
X143745941Y-75750809D01*
X143744038Y-75761604D01*
X143725628Y-75972025D01*
X143725628Y-75982975D01*
X121508500Y-75982975D01*
X121508500Y-75036356D01*
X140526601Y-75036356D01*
X140533059Y-75045716D01*
X140549361Y-75060012D01*
X140555901Y-75065030D01*
X140795144Y-75224887D01*
X140802281Y-75229008D01*
X141060349Y-75356272D01*
X141067953Y-75359422D01*
X141340420Y-75451912D01*
X141348383Y-75454046D01*
X141630600Y-75510183D01*
X141638751Y-75511256D01*
X141925881Y-75530075D01*
X141934119Y-75530075D01*
X142221249Y-75511256D01*
X142229400Y-75510183D01*
X142511617Y-75454046D01*
X142519580Y-75451912D01*
X142792047Y-75359422D01*
X142799651Y-75356272D01*
X143057719Y-75229008D01*
X143064856Y-75224887D01*
X143304099Y-75065030D01*
X143310639Y-75060012D01*
X143325074Y-75047353D01*
X143333472Y-75034114D01*
X143327638Y-75024349D01*
X143221060Y-74917771D01*
X144305860Y-74917771D01*
X144312928Y-74931218D01*
X144987188Y-75605478D01*
X145001132Y-75613092D01*
X145002965Y-75612961D01*
X145009580Y-75608710D01*
X145687793Y-74930497D01*
X145694223Y-74918723D01*
X145684926Y-74906707D01*
X145641931Y-74876602D01*
X145632445Y-74871124D01*
X145441007Y-74781855D01*
X145430715Y-74778109D01*
X145226691Y-74723441D01*
X145215896Y-74721538D01*
X145005475Y-74703128D01*
X144994525Y-74703128D01*
X144784104Y-74721538D01*
X144773309Y-74723441D01*
X144569285Y-74778109D01*
X144558993Y-74781855D01*
X144367559Y-74871123D01*
X144358068Y-74876603D01*
X144314235Y-74907294D01*
X144305860Y-74917771D01*
X143221060Y-74917771D01*
X141942810Y-73639520D01*
X141928869Y-73631908D01*
X141927034Y-73632039D01*
X141920420Y-73636290D01*
X140534116Y-75022595D01*
X140526601Y-75036356D01*
X121508500Y-75036356D01*
X121508500Y-73271619D01*
X139667425Y-73271619D01*
X139686244Y-73558749D01*
X139687317Y-73566900D01*
X139743454Y-73849117D01*
X139745588Y-73857080D01*
X139838078Y-74129547D01*
X139841228Y-74137151D01*
X139968492Y-74395218D01*
X139972613Y-74402355D01*
X140132470Y-74641599D01*
X140137488Y-74648139D01*
X140150147Y-74662574D01*
X140163386Y-74670972D01*
X140173151Y-74665138D01*
X141557980Y-73280310D01*
X141564357Y-73268631D01*
X142294408Y-73268631D01*
X142294539Y-73270466D01*
X142298790Y-73277080D01*
X143685095Y-74663384D01*
X143698856Y-74670899D01*
X143708216Y-74664441D01*
X143722512Y-74648139D01*
X143727530Y-74641599D01*
X143887387Y-74402355D01*
X143891508Y-74395218D01*
X144018772Y-74137151D01*
X144021922Y-74129547D01*
X144114412Y-73857080D01*
X144116546Y-73849117D01*
X144172683Y-73566900D01*
X144173756Y-73558749D01*
X144192575Y-73271619D01*
X152807425Y-73271619D01*
X152826244Y-73558749D01*
X152827317Y-73566900D01*
X152883454Y-73849117D01*
X152885588Y-73857080D01*
X152978078Y-74129547D01*
X152981228Y-74137151D01*
X153108492Y-74395218D01*
X153112613Y-74402355D01*
X153272470Y-74641599D01*
X153277482Y-74648131D01*
X153290150Y-74662576D01*
X153303386Y-74670972D01*
X153313151Y-74665138D01*
X154697980Y-73280310D01*
X154704357Y-73268631D01*
X155434408Y-73268631D01*
X155434539Y-73270466D01*
X155438790Y-73277080D01*
X156825095Y-74663384D01*
X156838856Y-74670899D01*
X156848216Y-74664441D01*
X156862512Y-74648139D01*
X156867530Y-74641599D01*
X157027387Y-74402355D01*
X157031508Y-74395218D01*
X157158772Y-74137151D01*
X157161922Y-74129547D01*
X157254412Y-73857080D01*
X157256546Y-73849117D01*
X157312683Y-73566900D01*
X157313756Y-73558749D01*
X157332575Y-73271619D01*
X157332575Y-73263381D01*
X157313756Y-72976251D01*
X157312683Y-72968100D01*
X157256546Y-72685883D01*
X157254412Y-72677920D01*
X157161922Y-72405453D01*
X157158772Y-72397849D01*
X157031508Y-72139782D01*
X157027387Y-72132645D01*
X156867530Y-71893401D01*
X156862512Y-71886861D01*
X156849853Y-71872426D01*
X156836614Y-71864028D01*
X156826849Y-71869862D01*
X155442020Y-73254690D01*
X155434408Y-73268631D01*
X154704357Y-73268631D01*
X154705592Y-73266369D01*
X154705461Y-73264534D01*
X154701210Y-73257920D01*
X153314905Y-71871616D01*
X153301144Y-71864101D01*
X153291784Y-71870559D01*
X153277488Y-71886861D01*
X153272470Y-71893401D01*
X153112613Y-72132645D01*
X153108492Y-72139782D01*
X152981228Y-72397849D01*
X152978078Y-72405453D01*
X152885588Y-72677920D01*
X152883454Y-72685883D01*
X152827317Y-72968100D01*
X152826244Y-72976251D01*
X152807425Y-73263381D01*
X152807425Y-73271619D01*
X144192575Y-73271619D01*
X144192575Y-73263381D01*
X144173756Y-72976251D01*
X144172683Y-72968100D01*
X144116546Y-72685883D01*
X144114412Y-72677920D01*
X144021922Y-72405453D01*
X144018772Y-72397849D01*
X143891508Y-72139782D01*
X143887387Y-72132645D01*
X143727530Y-71893401D01*
X143722512Y-71886861D01*
X143709853Y-71872426D01*
X143696614Y-71864028D01*
X143686849Y-71869862D01*
X142302020Y-73254690D01*
X142294408Y-73268631D01*
X141564357Y-73268631D01*
X141565592Y-73266369D01*
X141565461Y-73264534D01*
X141561210Y-73257920D01*
X140174905Y-71871616D01*
X140161144Y-71864101D01*
X140151784Y-71870559D01*
X140137488Y-71886861D01*
X140132470Y-71893401D01*
X139972613Y-72132645D01*
X139968492Y-72139782D01*
X139841228Y-72397849D01*
X139838078Y-72405453D01*
X139745588Y-72677920D01*
X139743454Y-72685883D01*
X139687317Y-72968100D01*
X139686244Y-72976251D01*
X139667425Y-73263381D01*
X139667425Y-73271619D01*
X121508500Y-73271619D01*
X121508500Y-71500886D01*
X140526528Y-71500886D01*
X140532362Y-71510651D01*
X141917190Y-72895480D01*
X141931131Y-72903092D01*
X141932966Y-72902961D01*
X141939580Y-72898710D01*
X143325884Y-71512405D01*
X143332175Y-71500886D01*
X153666528Y-71500886D01*
X153672362Y-71510651D01*
X155057190Y-72895480D01*
X155071131Y-72903092D01*
X155072966Y-72902961D01*
X155079580Y-72898710D01*
X156465884Y-71512405D01*
X156473399Y-71498644D01*
X156466941Y-71489284D01*
X156450639Y-71474988D01*
X156444099Y-71469970D01*
X156204856Y-71310113D01*
X156197719Y-71305992D01*
X155939651Y-71178728D01*
X155932047Y-71175578D01*
X155659580Y-71083088D01*
X155651617Y-71080954D01*
X155369400Y-71024817D01*
X155361249Y-71023744D01*
X155074119Y-71004925D01*
X155065881Y-71004925D01*
X154778751Y-71023744D01*
X154770600Y-71024817D01*
X154488383Y-71080954D01*
X154480420Y-71083088D01*
X154207953Y-71175578D01*
X154200349Y-71178728D01*
X153942282Y-71305992D01*
X153935145Y-71310113D01*
X153695901Y-71469970D01*
X153689361Y-71474988D01*
X153674926Y-71487647D01*
X153666528Y-71500886D01*
X143332175Y-71500886D01*
X143333399Y-71498644D01*
X143326941Y-71489284D01*
X143310639Y-71474988D01*
X143304099Y-71469970D01*
X143064856Y-71310113D01*
X143057719Y-71305992D01*
X142799651Y-71178728D01*
X142792047Y-71175578D01*
X142519580Y-71083088D01*
X142511617Y-71080954D01*
X142229400Y-71024817D01*
X142221249Y-71023744D01*
X141934119Y-71004925D01*
X141925881Y-71004925D01*
X141638751Y-71023744D01*
X141630600Y-71024817D01*
X141348383Y-71080954D01*
X141340420Y-71083088D01*
X141067953Y-71175578D01*
X141060349Y-71178728D01*
X140802282Y-71305992D01*
X140795145Y-71310113D01*
X140555901Y-71469970D01*
X140549361Y-71474988D01*
X140534926Y-71487647D01*
X140526528Y-71500886D01*
X121508500Y-71500886D01*
X121508500Y-69797386D01*
X122567759Y-69797386D01*
X122575216Y-69807753D01*
X122814935Y-70001874D01*
X122820272Y-70005751D01*
X123140685Y-70213830D01*
X123146394Y-70217127D01*
X123486811Y-70390578D01*
X123492836Y-70393260D01*
X123849502Y-70530171D01*
X123855784Y-70532212D01*
X124224816Y-70631094D01*
X124231266Y-70632465D01*
X124608629Y-70692234D01*
X124615167Y-70692920D01*
X124996699Y-70712916D01*
X125003301Y-70712916D01*
X125384833Y-70692920D01*
X125391371Y-70692234D01*
X125768734Y-70632465D01*
X125775184Y-70631094D01*
X126144216Y-70532212D01*
X126150498Y-70530171D01*
X126507164Y-70393260D01*
X126513189Y-70390578D01*
X126853606Y-70217127D01*
X126859315Y-70213830D01*
X127179728Y-70005751D01*
X127185065Y-70001874D01*
X127423835Y-69808522D01*
X127431527Y-69797386D01*
X169567759Y-69797386D01*
X169575216Y-69807753D01*
X169814935Y-70001874D01*
X169820272Y-70005751D01*
X170140685Y-70213830D01*
X170146394Y-70217127D01*
X170486811Y-70390578D01*
X170492836Y-70393260D01*
X170849502Y-70530171D01*
X170855784Y-70532212D01*
X171224816Y-70631094D01*
X171231266Y-70632465D01*
X171608629Y-70692234D01*
X171615167Y-70692920D01*
X171996699Y-70712916D01*
X172003301Y-70712916D01*
X172384833Y-70692920D01*
X172391371Y-70692234D01*
X172768734Y-70632465D01*
X172775184Y-70631094D01*
X173144216Y-70532212D01*
X173150498Y-70530171D01*
X173507164Y-70393260D01*
X173513189Y-70390578D01*
X173853606Y-70217127D01*
X173859315Y-70213830D01*
X174179728Y-70005751D01*
X174185065Y-70001874D01*
X174423835Y-69808522D01*
X174432300Y-69796267D01*
X174425966Y-69785176D01*
X172012812Y-67372022D01*
X171998868Y-67364408D01*
X171997035Y-67364539D01*
X171990420Y-67368790D01*
X169574900Y-69784310D01*
X169567759Y-69797386D01*
X127431527Y-69797386D01*
X127432300Y-69796267D01*
X127425966Y-69785176D01*
X125012812Y-67372022D01*
X124998868Y-67364408D01*
X124997035Y-67364539D01*
X124990420Y-67368790D01*
X122574900Y-69784310D01*
X122567759Y-69797386D01*
X121508500Y-69797386D01*
X121508500Y-68839945D01*
X121528502Y-68771824D01*
X121582158Y-68725331D01*
X121652432Y-68715227D01*
X121717012Y-68744721D01*
X121746767Y-68782742D01*
X121782872Y-68853603D01*
X121786169Y-68859313D01*
X121994253Y-69179735D01*
X121998123Y-69185061D01*
X122191478Y-69423835D01*
X122203733Y-69432300D01*
X122214824Y-69425966D01*
X124639658Y-67001132D01*
X125364408Y-67001132D01*
X125364539Y-67002965D01*
X125368790Y-67009580D01*
X127784310Y-69425100D01*
X127797386Y-69432241D01*
X127807753Y-69424784D01*
X128001877Y-69185061D01*
X128005747Y-69179735D01*
X128213831Y-68859313D01*
X128217128Y-68853603D01*
X128390578Y-68513189D01*
X128393260Y-68507164D01*
X128530171Y-68150498D01*
X128532212Y-68144216D01*
X128631094Y-67775184D01*
X128632465Y-67768734D01*
X128692234Y-67391371D01*
X128692920Y-67384833D01*
X128712916Y-67003301D01*
X168287084Y-67003301D01*
X168307080Y-67384833D01*
X168307766Y-67391371D01*
X168367535Y-67768734D01*
X168368906Y-67775184D01*
X168467788Y-68144216D01*
X168469829Y-68150498D01*
X168606740Y-68507164D01*
X168609422Y-68513189D01*
X168782872Y-68853603D01*
X168786169Y-68859313D01*
X168994253Y-69179735D01*
X168998123Y-69185061D01*
X169191478Y-69423835D01*
X169203733Y-69432300D01*
X169214824Y-69425966D01*
X171627978Y-67012812D01*
X171635592Y-66998868D01*
X171635461Y-66997035D01*
X171631210Y-66990420D01*
X169215690Y-64574900D01*
X169202614Y-64567759D01*
X169192247Y-64575216D01*
X168998123Y-64814939D01*
X168994253Y-64820265D01*
X168786169Y-65140687D01*
X168782872Y-65146397D01*
X168609422Y-65486811D01*
X168606740Y-65492836D01*
X168469829Y-65849502D01*
X168467788Y-65855784D01*
X168368906Y-66224816D01*
X168367535Y-66231266D01*
X168307766Y-66608629D01*
X168307080Y-66615167D01*
X168287084Y-66996699D01*
X168287084Y-67003301D01*
X128712916Y-67003301D01*
X128712916Y-66996699D01*
X128692920Y-66615167D01*
X128692234Y-66608629D01*
X128632465Y-66231266D01*
X128631094Y-66224816D01*
X128532212Y-65855784D01*
X128530171Y-65849502D01*
X128393260Y-65492836D01*
X128390578Y-65486811D01*
X128217128Y-65146397D01*
X128213831Y-65140687D01*
X128005747Y-64820265D01*
X128001877Y-64814939D01*
X127808522Y-64576165D01*
X127796267Y-64567700D01*
X127785176Y-64574034D01*
X125372022Y-66987188D01*
X125364408Y-67001132D01*
X124639658Y-67001132D01*
X127425100Y-64215690D01*
X127432241Y-64202614D01*
X127424784Y-64192247D01*
X127185065Y-63998126D01*
X127179728Y-63994249D01*
X126859315Y-63786170D01*
X126853606Y-63782874D01*
X126782743Y-63746767D01*
X126731128Y-63698019D01*
X126714062Y-63629104D01*
X126736963Y-63561902D01*
X126792560Y-63517750D01*
X126839946Y-63508500D01*
X170160055Y-63508500D01*
X170228176Y-63528502D01*
G37*
%TD.AperFunction*%
%TD*%
M02*
