%TF.GenerationSoftware,KiCad,Pcbnew,(6.0.5)*%
%TF.CreationDate,2024-05-01T13:41:59+02:00*%
%TF.ProjectId,SL2.1A-HS-HUB,534c322e-3141-42d4-9853-2d4855422e6b,rev?*%
%TF.SameCoordinates,Original*%
%TF.FileFunction,Legend,Top*%
%TF.FilePolarity,Positive*%
%FSLAX46Y46*%
G04 Gerber Fmt 4.6, Leading zero omitted, Abs format (unit mm)*
G04 Created by KiCad (PCBNEW (6.0.5)) date 2024-05-01 13:41:59*
%MOMM*%
%LPD*%
G01*
G04 APERTURE LIST*
G04 Aperture macros list*
%AMRoundRect*
0 Rectangle with rounded corners*
0 $1 Rounding radius*
0 $2 $3 $4 $5 $6 $7 $8 $9 X,Y pos of 4 corners*
0 Add a 4 corners polygon primitive as box body*
4,1,4,$2,$3,$4,$5,$6,$7,$8,$9,$2,$3,0*
0 Add four circle primitives for the rounded corners*
1,1,$1+$1,$2,$3*
1,1,$1+$1,$4,$5*
1,1,$1+$1,$6,$7*
1,1,$1+$1,$8,$9*
0 Add four rect primitives between the rounded corners*
20,1,$1+$1,$2,$3,$4,$5,0*
20,1,$1+$1,$4,$5,$6,$7,0*
20,1,$1+$1,$6,$7,$8,$9,0*
20,1,$1+$1,$8,$9,$2,$3,0*%
G04 Aperture macros list end*
%ADD10C,0.300000*%
%ADD11C,0.150000*%
%ADD12C,0.120000*%
%ADD13C,0.152400*%
%ADD14C,0.050800*%
%ADD15RoundRect,0.250000X1.500000X0.550000X-1.500000X0.550000X-1.500000X-0.550000X1.500000X-0.550000X0*%
%ADD16RoundRect,0.250000X0.250000X0.475000X-0.250000X0.475000X-0.250000X-0.475000X0.250000X-0.475000X0*%
%ADD17R,1.524000X1.524000*%
%ADD18C,1.524000*%
%ADD19C,3.500000*%
%ADD20RoundRect,0.102000X1.016000X-0.330200X1.016000X0.330200X-1.016000X0.330200X-1.016000X-0.330200X0*%
%ADD21RoundRect,0.250000X-0.325000X-0.650000X0.325000X-0.650000X0.325000X0.650000X-0.325000X0.650000X0*%
%ADD22RoundRect,0.250000X-0.475000X0.250000X-0.475000X-0.250000X0.475000X-0.250000X0.475000X0.250000X0*%
%ADD23RoundRect,0.250000X-0.250000X-0.475000X0.250000X-0.475000X0.250000X0.475000X-0.250000X0.475000X0*%
%ADD24C,1.500000*%
%ADD25C,6.400000*%
%ADD26RoundRect,0.250000X0.475000X-0.250000X0.475000X0.250000X-0.475000X0.250000X-0.475000X-0.250000X0*%
%ADD27RoundRect,0.250000X-0.262500X-0.450000X0.262500X-0.450000X0.262500X0.450000X-0.262500X0.450000X0*%
%ADD28C,0.900000*%
%ADD29R,2.500000X0.500000*%
%ADD30R,2.500000X2.000000*%
%ADD31RoundRect,0.243750X-0.243750X-0.456250X0.243750X-0.456250X0.243750X0.456250X-0.243750X0.456250X0*%
G04 APERTURE END LIST*
D10*
X128071428Y-91892857D02*
X128571428Y-91892857D01*
X128785714Y-92678571D02*
X128071428Y-92678571D01*
X128071428Y-91178571D01*
X128785714Y-91178571D01*
X130142857Y-92678571D02*
X129428571Y-92678571D01*
X129428571Y-91178571D01*
X131500000Y-92678571D02*
X131000000Y-91964285D01*
X130642857Y-92678571D02*
X130642857Y-91178571D01*
X131214285Y-91178571D01*
X131357142Y-91250000D01*
X131428571Y-91321428D01*
X131500000Y-91464285D01*
X131500000Y-91678571D01*
X131428571Y-91821428D01*
X131357142Y-91892857D01*
X131214285Y-91964285D01*
X130642857Y-91964285D01*
X134500000Y-92678571D02*
X134428571Y-92678571D01*
X134285714Y-92607142D01*
X134071428Y-92392857D01*
X133714285Y-91964285D01*
X133571428Y-91750000D01*
X133500000Y-91535714D01*
X133500000Y-91392857D01*
X133571428Y-91250000D01*
X133714285Y-91178571D01*
X133785714Y-91178571D01*
X133928571Y-91250000D01*
X134000000Y-91392857D01*
X134000000Y-91464285D01*
X133928571Y-91607142D01*
X133857142Y-91678571D01*
X133428571Y-91964285D01*
X133357142Y-92035714D01*
X133285714Y-92178571D01*
X133285714Y-92392857D01*
X133357142Y-92535714D01*
X133428571Y-92607142D01*
X133571428Y-92678571D01*
X133785714Y-92678571D01*
X133928571Y-92607142D01*
X134000000Y-92535714D01*
X134214285Y-92250000D01*
X134285714Y-92035714D01*
X134285714Y-91892857D01*
X136714285Y-91178571D02*
X136714285Y-92250000D01*
X136642857Y-92464285D01*
X136500000Y-92607142D01*
X136285714Y-92678571D01*
X136142857Y-92678571D01*
X137285714Y-91178571D02*
X137642857Y-92678571D01*
X137928571Y-91607142D01*
X138214285Y-92678571D01*
X138571428Y-91178571D01*
X139928571Y-91250000D02*
X139785714Y-91178571D01*
X139571428Y-91178571D01*
X139357142Y-91250000D01*
X139214285Y-91392857D01*
X139142857Y-91535714D01*
X139071428Y-91821428D01*
X139071428Y-92035714D01*
X139142857Y-92321428D01*
X139214285Y-92464285D01*
X139357142Y-92607142D01*
X139571428Y-92678571D01*
X139714285Y-92678571D01*
X139928571Y-92607142D01*
X140000000Y-92535714D01*
X140000000Y-92035714D01*
X139714285Y-92035714D01*
X122357142Y-95107142D02*
X122571428Y-95178571D01*
X122928571Y-95178571D01*
X123071428Y-95107142D01*
X123142857Y-95035714D01*
X123214285Y-94892857D01*
X123214285Y-94750000D01*
X123142857Y-94607142D01*
X123071428Y-94535714D01*
X122928571Y-94464285D01*
X122642857Y-94392857D01*
X122500000Y-94321428D01*
X122428571Y-94250000D01*
X122357142Y-94107142D01*
X122357142Y-93964285D01*
X122428571Y-93821428D01*
X122500000Y-93750000D01*
X122642857Y-93678571D01*
X123000000Y-93678571D01*
X123214285Y-93750000D01*
X124571428Y-95178571D02*
X123857142Y-95178571D01*
X123857142Y-93678571D01*
X125000000Y-93821428D02*
X125071428Y-93750000D01*
X125214285Y-93678571D01*
X125571428Y-93678571D01*
X125714285Y-93750000D01*
X125785714Y-93821428D01*
X125857142Y-93964285D01*
X125857142Y-94107142D01*
X125785714Y-94321428D01*
X124928571Y-95178571D01*
X125857142Y-95178571D01*
X126500000Y-95035714D02*
X126571428Y-95107142D01*
X126500000Y-95178571D01*
X126428571Y-95107142D01*
X126500000Y-95035714D01*
X126500000Y-95178571D01*
X128000000Y-95178571D02*
X127142857Y-95178571D01*
X127571428Y-95178571D02*
X127571428Y-93678571D01*
X127428571Y-93892857D01*
X127285714Y-94035714D01*
X127142857Y-94107142D01*
X128571428Y-94750000D02*
X129285714Y-94750000D01*
X128428571Y-95178571D02*
X128928571Y-93678571D01*
X129428571Y-95178571D01*
X129928571Y-94607142D02*
X131071428Y-94607142D01*
X131785714Y-95178571D02*
X131785714Y-93678571D01*
X131785714Y-94392857D02*
X132642857Y-94392857D01*
X132642857Y-95178571D02*
X132642857Y-93678571D01*
X133285714Y-95107142D02*
X133500000Y-95178571D01*
X133857142Y-95178571D01*
X134000000Y-95107142D01*
X134071428Y-95035714D01*
X134142857Y-94892857D01*
X134142857Y-94750000D01*
X134071428Y-94607142D01*
X134000000Y-94535714D01*
X133857142Y-94464285D01*
X133571428Y-94392857D01*
X133428571Y-94321428D01*
X133357142Y-94250000D01*
X133285714Y-94107142D01*
X133285714Y-93964285D01*
X133357142Y-93821428D01*
X133428571Y-93750000D01*
X133571428Y-93678571D01*
X133928571Y-93678571D01*
X134142857Y-93750000D01*
X134785714Y-94607142D02*
X135928571Y-94607142D01*
X136642857Y-95178571D02*
X136642857Y-93678571D01*
X136642857Y-94392857D02*
X137500000Y-94392857D01*
X137500000Y-95178571D02*
X137500000Y-93678571D01*
X138214285Y-93678571D02*
X138214285Y-94892857D01*
X138285714Y-95035714D01*
X138357142Y-95107142D01*
X138500000Y-95178571D01*
X138785714Y-95178571D01*
X138928571Y-95107142D01*
X139000000Y-95035714D01*
X139071428Y-94892857D01*
X139071428Y-93678571D01*
X140285714Y-94392857D02*
X140500000Y-94464285D01*
X140571428Y-94535714D01*
X140642857Y-94678571D01*
X140642857Y-94892857D01*
X140571428Y-95035714D01*
X140500000Y-95107142D01*
X140357142Y-95178571D01*
X139785714Y-95178571D01*
X139785714Y-93678571D01*
X140285714Y-93678571D01*
X140428571Y-93750000D01*
X140500000Y-93821428D01*
X140571428Y-93964285D01*
X140571428Y-94107142D01*
X140500000Y-94250000D01*
X140428571Y-94321428D01*
X140285714Y-94392857D01*
X139785714Y-94392857D01*
X142214285Y-93678571D02*
X142714285Y-95178571D01*
X143214285Y-93678571D01*
X144500000Y-95178571D02*
X143642857Y-95178571D01*
X144071428Y-95178571D02*
X144071428Y-93678571D01*
X143928571Y-93892857D01*
X143785714Y-94035714D01*
X143642857Y-94107142D01*
X145142857Y-95035714D02*
X145214285Y-95107142D01*
X145142857Y-95178571D01*
X145071428Y-95107142D01*
X145142857Y-95035714D01*
X145142857Y-95178571D01*
X146142857Y-93678571D02*
X146285714Y-93678571D01*
X146428571Y-93750000D01*
X146500000Y-93821428D01*
X146571428Y-93964285D01*
X146642857Y-94250000D01*
X146642857Y-94607142D01*
X146571428Y-94892857D01*
X146500000Y-95035714D01*
X146428571Y-95107142D01*
X146285714Y-95178571D01*
X146142857Y-95178571D01*
X146000000Y-95107142D01*
X145928571Y-95035714D01*
X145857142Y-94892857D01*
X145785714Y-94607142D01*
X145785714Y-94250000D01*
X145857142Y-93964285D01*
X145928571Y-93821428D01*
X146000000Y-93750000D01*
X146142857Y-93678571D01*
D11*
%TO.C,C8*%
X130583333Y-88957142D02*
X130535714Y-89004761D01*
X130392857Y-89052380D01*
X130297619Y-89052380D01*
X130154761Y-89004761D01*
X130059523Y-88909523D01*
X130011904Y-88814285D01*
X129964285Y-88623809D01*
X129964285Y-88480952D01*
X130011904Y-88290476D01*
X130059523Y-88195238D01*
X130154761Y-88100000D01*
X130297619Y-88052380D01*
X130392857Y-88052380D01*
X130535714Y-88100000D01*
X130583333Y-88147619D01*
X131154761Y-88480952D02*
X131059523Y-88433333D01*
X131011904Y-88385714D01*
X130964285Y-88290476D01*
X130964285Y-88242857D01*
X131011904Y-88147619D01*
X131059523Y-88100000D01*
X131154761Y-88052380D01*
X131345238Y-88052380D01*
X131440476Y-88100000D01*
X131488095Y-88147619D01*
X131535714Y-88242857D01*
X131535714Y-88290476D01*
X131488095Y-88385714D01*
X131440476Y-88433333D01*
X131345238Y-88480952D01*
X131154761Y-88480952D01*
X131059523Y-88528571D01*
X131011904Y-88576190D01*
X130964285Y-88671428D01*
X130964285Y-88861904D01*
X131011904Y-88957142D01*
X131059523Y-89004761D01*
X131154761Y-89052380D01*
X131345238Y-89052380D01*
X131440476Y-89004761D01*
X131488095Y-88957142D01*
X131535714Y-88861904D01*
X131535714Y-88671428D01*
X131488095Y-88576190D01*
X131440476Y-88528571D01*
X131345238Y-88480952D01*
%TO.C,C2*%
X142833333Y-130107142D02*
X142785714Y-130154761D01*
X142642857Y-130202380D01*
X142547619Y-130202380D01*
X142404761Y-130154761D01*
X142309523Y-130059523D01*
X142261904Y-129964285D01*
X142214285Y-129773809D01*
X142214285Y-129630952D01*
X142261904Y-129440476D01*
X142309523Y-129345238D01*
X142404761Y-129250000D01*
X142547619Y-129202380D01*
X142642857Y-129202380D01*
X142785714Y-129250000D01*
X142833333Y-129297619D01*
X143214285Y-129297619D02*
X143261904Y-129250000D01*
X143357142Y-129202380D01*
X143595238Y-129202380D01*
X143690476Y-129250000D01*
X143738095Y-129297619D01*
X143785714Y-129392857D01*
X143785714Y-129488095D01*
X143738095Y-129630952D01*
X143166666Y-130202380D01*
X143785714Y-130202380D01*
%TO.C,J2*%
X148166666Y-77952380D02*
X148166666Y-78666666D01*
X148119047Y-78809523D01*
X148023809Y-78904761D01*
X147880952Y-78952380D01*
X147785714Y-78952380D01*
X148595238Y-78047619D02*
X148642857Y-78000000D01*
X148738095Y-77952380D01*
X148976190Y-77952380D01*
X149071428Y-78000000D01*
X149119047Y-78047619D01*
X149166666Y-78142857D01*
X149166666Y-78238095D01*
X149119047Y-78380952D01*
X148547619Y-78952380D01*
X149166666Y-78952380D01*
%TO.C,C12*%
X165831538Y-117457142D02*
X165783919Y-117504761D01*
X165641062Y-117552380D01*
X165545824Y-117552380D01*
X165402967Y-117504761D01*
X165307729Y-117409523D01*
X165260110Y-117314285D01*
X165212491Y-117123809D01*
X165212491Y-116980952D01*
X165260110Y-116790476D01*
X165307729Y-116695238D01*
X165402967Y-116600000D01*
X165545824Y-116552380D01*
X165641062Y-116552380D01*
X165783919Y-116600000D01*
X165831538Y-116647619D01*
X166783919Y-117552380D02*
X166212491Y-117552380D01*
X166498205Y-117552380D02*
X166498205Y-116552380D01*
X166402967Y-116695238D01*
X166307729Y-116790476D01*
X166212491Y-116838095D01*
X167164872Y-116647619D02*
X167212491Y-116600000D01*
X167307729Y-116552380D01*
X167545824Y-116552380D01*
X167641062Y-116600000D01*
X167688681Y-116647619D01*
X167736300Y-116742857D01*
X167736300Y-116838095D01*
X167688681Y-116980952D01*
X167117253Y-117552380D01*
X167736300Y-117552380D01*
%TO.C,J5*%
X147166666Y-132202380D02*
X147166666Y-132916666D01*
X147119047Y-133059523D01*
X147023809Y-133154761D01*
X146880952Y-133202380D01*
X146785714Y-133202380D01*
X148119047Y-132202380D02*
X147642857Y-132202380D01*
X147595238Y-132678571D01*
X147642857Y-132630952D01*
X147738095Y-132583333D01*
X147976190Y-132583333D01*
X148071428Y-132630952D01*
X148119047Y-132678571D01*
X148166666Y-132773809D01*
X148166666Y-133011904D01*
X148119047Y-133107142D01*
X148071428Y-133154761D01*
X147976190Y-133202380D01*
X147738095Y-133202380D01*
X147642857Y-133154761D01*
X147595238Y-133107142D01*
%TO.C,U1*%
X147738095Y-98952380D02*
X147738095Y-99761904D01*
X147785714Y-99857142D01*
X147833333Y-99904761D01*
X147928571Y-99952380D01*
X148119047Y-99952380D01*
X148214285Y-99904761D01*
X148261904Y-99857142D01*
X148309523Y-99761904D01*
X148309523Y-98952380D01*
X149309523Y-99952380D02*
X148738095Y-99952380D01*
X149023809Y-99952380D02*
X149023809Y-98952380D01*
X148928571Y-99095238D01*
X148833333Y-99190476D01*
X148738095Y-99238095D01*
%TO.C,C4*%
X139833333Y-104007142D02*
X139785714Y-104054761D01*
X139642857Y-104102380D01*
X139547619Y-104102380D01*
X139404761Y-104054761D01*
X139309523Y-103959523D01*
X139261904Y-103864285D01*
X139214285Y-103673809D01*
X139214285Y-103530952D01*
X139261904Y-103340476D01*
X139309523Y-103245238D01*
X139404761Y-103150000D01*
X139547619Y-103102380D01*
X139642857Y-103102380D01*
X139785714Y-103150000D01*
X139833333Y-103197619D01*
X140690476Y-103435714D02*
X140690476Y-104102380D01*
X140452380Y-103054761D02*
X140214285Y-103769047D01*
X140833333Y-103769047D01*
%TO.C,C5*%
X139833333Y-110357142D02*
X139785714Y-110404761D01*
X139642857Y-110452380D01*
X139547619Y-110452380D01*
X139404761Y-110404761D01*
X139309523Y-110309523D01*
X139261904Y-110214285D01*
X139214285Y-110023809D01*
X139214285Y-109880952D01*
X139261904Y-109690476D01*
X139309523Y-109595238D01*
X139404761Y-109500000D01*
X139547619Y-109452380D01*
X139642857Y-109452380D01*
X139785714Y-109500000D01*
X139833333Y-109547619D01*
X140738095Y-109452380D02*
X140261904Y-109452380D01*
X140214285Y-109928571D01*
X140261904Y-109880952D01*
X140357142Y-109833333D01*
X140595238Y-109833333D01*
X140690476Y-109880952D01*
X140738095Y-109928571D01*
X140785714Y-110023809D01*
X140785714Y-110261904D01*
X140738095Y-110357142D01*
X140690476Y-110404761D01*
X140595238Y-110452380D01*
X140357142Y-110452380D01*
X140261904Y-110404761D01*
X140214285Y-110357142D01*
%TO.C,J3*%
X160124880Y-86333333D02*
X160839166Y-86333333D01*
X160982023Y-86380952D01*
X161077261Y-86476190D01*
X161124880Y-86619047D01*
X161124880Y-86714285D01*
X160124880Y-85952380D02*
X160124880Y-85333333D01*
X160505833Y-85666666D01*
X160505833Y-85523809D01*
X160553452Y-85428571D01*
X160601071Y-85380952D01*
X160696309Y-85333333D01*
X160934404Y-85333333D01*
X161029642Y-85380952D01*
X161077261Y-85428571D01*
X161124880Y-85523809D01*
X161124880Y-85809523D01*
X161077261Y-85904761D01*
X161029642Y-85952380D01*
%TO.C,C9*%
X134607142Y-101416666D02*
X134654761Y-101464285D01*
X134702380Y-101607142D01*
X134702380Y-101702380D01*
X134654761Y-101845238D01*
X134559523Y-101940476D01*
X134464285Y-101988095D01*
X134273809Y-102035714D01*
X134130952Y-102035714D01*
X133940476Y-101988095D01*
X133845238Y-101940476D01*
X133750000Y-101845238D01*
X133702380Y-101702380D01*
X133702380Y-101607142D01*
X133750000Y-101464285D01*
X133797619Y-101416666D01*
X134702380Y-100940476D02*
X134702380Y-100750000D01*
X134654761Y-100654761D01*
X134607142Y-100607142D01*
X134464285Y-100511904D01*
X134273809Y-100464285D01*
X133892857Y-100464285D01*
X133797619Y-100511904D01*
X133750000Y-100559523D01*
X133702380Y-100654761D01*
X133702380Y-100845238D01*
X133750000Y-100940476D01*
X133797619Y-100988095D01*
X133892857Y-101035714D01*
X134130952Y-101035714D01*
X134226190Y-100988095D01*
X134273809Y-100940476D01*
X134321428Y-100845238D01*
X134321428Y-100654761D01*
X134273809Y-100559523D01*
X134226190Y-100511904D01*
X134130952Y-100464285D01*
%TO.C,C3*%
X145833333Y-120857142D02*
X145785714Y-120904761D01*
X145642857Y-120952380D01*
X145547619Y-120952380D01*
X145404761Y-120904761D01*
X145309523Y-120809523D01*
X145261904Y-120714285D01*
X145214285Y-120523809D01*
X145214285Y-120380952D01*
X145261904Y-120190476D01*
X145309523Y-120095238D01*
X145404761Y-120000000D01*
X145547619Y-119952380D01*
X145642857Y-119952380D01*
X145785714Y-120000000D01*
X145833333Y-120047619D01*
X146166666Y-119952380D02*
X146785714Y-119952380D01*
X146452380Y-120333333D01*
X146595238Y-120333333D01*
X146690476Y-120380952D01*
X146738095Y-120428571D01*
X146785714Y-120523809D01*
X146785714Y-120761904D01*
X146738095Y-120857142D01*
X146690476Y-120904761D01*
X146595238Y-120952380D01*
X146309523Y-120952380D01*
X146214285Y-120904761D01*
X146166666Y-120857142D01*
%TO.C,Y1*%
X148033809Y-111476190D02*
X148033809Y-111952380D01*
X147700476Y-110952380D02*
X148033809Y-111476190D01*
X148367142Y-110952380D01*
X149224285Y-111952380D02*
X148652857Y-111952380D01*
X148938571Y-111952380D02*
X148938571Y-110952380D01*
X148843333Y-111095238D01*
X148748095Y-111190476D01*
X148652857Y-111238095D01*
%TO.C,H1*%
X171238095Y-71952380D02*
X171238095Y-70952380D01*
X171238095Y-71428571D02*
X171809523Y-71428571D01*
X171809523Y-71952380D02*
X171809523Y-70952380D01*
X172809523Y-71952380D02*
X172238095Y-71952380D01*
X172523809Y-71952380D02*
X172523809Y-70952380D01*
X172428571Y-71095238D01*
X172333333Y-71190476D01*
X172238095Y-71238095D01*
%TO.C,C1*%
X150833333Y-120787142D02*
X150785714Y-120834761D01*
X150642857Y-120882380D01*
X150547619Y-120882380D01*
X150404761Y-120834761D01*
X150309523Y-120739523D01*
X150261904Y-120644285D01*
X150214285Y-120453809D01*
X150214285Y-120310952D01*
X150261904Y-120120476D01*
X150309523Y-120025238D01*
X150404761Y-119930000D01*
X150547619Y-119882380D01*
X150642857Y-119882380D01*
X150785714Y-119930000D01*
X150833333Y-119977619D01*
X151785714Y-120882380D02*
X151214285Y-120882380D01*
X151500000Y-120882380D02*
X151500000Y-119882380D01*
X151404761Y-120025238D01*
X151309523Y-120120476D01*
X151214285Y-120168095D01*
%TO.C,C7*%
X158177142Y-90166666D02*
X158224761Y-90214285D01*
X158272380Y-90357142D01*
X158272380Y-90452380D01*
X158224761Y-90595238D01*
X158129523Y-90690476D01*
X158034285Y-90738095D01*
X157843809Y-90785714D01*
X157700952Y-90785714D01*
X157510476Y-90738095D01*
X157415238Y-90690476D01*
X157320000Y-90595238D01*
X157272380Y-90452380D01*
X157272380Y-90357142D01*
X157320000Y-90214285D01*
X157367619Y-90166666D01*
X157272380Y-89833333D02*
X157272380Y-89166666D01*
X158272380Y-89595238D01*
%TO.C,J4*%
X160202380Y-127833333D02*
X160916666Y-127833333D01*
X161059523Y-127880952D01*
X161154761Y-127976190D01*
X161202380Y-128119047D01*
X161202380Y-128214285D01*
X160535714Y-126928571D02*
X161202380Y-126928571D01*
X160154761Y-127166666D02*
X160869047Y-127404761D01*
X160869047Y-126785714D01*
%TO.C,H4*%
X124238095Y-71952380D02*
X124238095Y-70952380D01*
X124238095Y-71428571D02*
X124809523Y-71428571D01*
X124809523Y-71952380D02*
X124809523Y-70952380D01*
X125714285Y-71285714D02*
X125714285Y-71952380D01*
X125476190Y-70904761D02*
X125238095Y-71619047D01*
X125857142Y-71619047D01*
%TO.C,C10*%
X130165665Y-131457142D02*
X130118046Y-131504761D01*
X129975189Y-131552380D01*
X129879951Y-131552380D01*
X129737094Y-131504761D01*
X129641856Y-131409523D01*
X129594237Y-131314285D01*
X129546618Y-131123809D01*
X129546618Y-130980952D01*
X129594237Y-130790476D01*
X129641856Y-130695238D01*
X129737094Y-130600000D01*
X129879951Y-130552380D01*
X129975189Y-130552380D01*
X130118046Y-130600000D01*
X130165665Y-130647619D01*
X131118046Y-131552380D02*
X130546618Y-131552380D01*
X130832332Y-131552380D02*
X130832332Y-130552380D01*
X130737094Y-130695238D01*
X130641856Y-130790476D01*
X130546618Y-130838095D01*
X131737094Y-130552380D02*
X131832332Y-130552380D01*
X131927570Y-130600000D01*
X131975189Y-130647619D01*
X132022808Y-130742857D01*
X132070427Y-130933333D01*
X132070427Y-131171428D01*
X132022808Y-131361904D01*
X131975189Y-131457142D01*
X131927570Y-131504761D01*
X131832332Y-131552380D01*
X131737094Y-131552380D01*
X131641856Y-131504761D01*
X131594237Y-131457142D01*
X131546618Y-131361904D01*
X131498999Y-131171428D01*
X131498999Y-130933333D01*
X131546618Y-130742857D01*
X131594237Y-130647619D01*
X131641856Y-130600000D01*
X131737094Y-130552380D01*
%TO.C,R1*%
X165897729Y-104347380D02*
X165564396Y-103871190D01*
X165326300Y-104347380D02*
X165326300Y-103347380D01*
X165707253Y-103347380D01*
X165802491Y-103395000D01*
X165850110Y-103442619D01*
X165897729Y-103537857D01*
X165897729Y-103680714D01*
X165850110Y-103775952D01*
X165802491Y-103823571D01*
X165707253Y-103871190D01*
X165326300Y-103871190D01*
X166850110Y-104347380D02*
X166278681Y-104347380D01*
X166564396Y-104347380D02*
X166564396Y-103347380D01*
X166469157Y-103490238D01*
X166373919Y-103585476D01*
X166278681Y-103633095D01*
%TO.C,J1*%
X131627380Y-105833333D02*
X132341666Y-105833333D01*
X132484523Y-105880952D01*
X132579761Y-105976190D01*
X132627380Y-106119047D01*
X132627380Y-106214285D01*
X132627380Y-104833333D02*
X132627380Y-105404761D01*
X132627380Y-105119047D02*
X131627380Y-105119047D01*
X131770238Y-105214285D01*
X131865476Y-105309523D01*
X131913095Y-105404761D01*
%TO.C,H2*%
X171238095Y-140252380D02*
X171238095Y-139252380D01*
X171238095Y-139728571D02*
X171809523Y-139728571D01*
X171809523Y-140252380D02*
X171809523Y-139252380D01*
X172238095Y-139347619D02*
X172285714Y-139300000D01*
X172380952Y-139252380D01*
X172619047Y-139252380D01*
X172714285Y-139300000D01*
X172761904Y-139347619D01*
X172809523Y-139442857D01*
X172809523Y-139538095D01*
X172761904Y-139680952D01*
X172190476Y-140252380D01*
X172809523Y-140252380D01*
%TO.C,C11*%
X158227142Y-133142857D02*
X158274761Y-133190476D01*
X158322380Y-133333333D01*
X158322380Y-133428571D01*
X158274761Y-133571428D01*
X158179523Y-133666666D01*
X158084285Y-133714285D01*
X157893809Y-133761904D01*
X157750952Y-133761904D01*
X157560476Y-133714285D01*
X157465238Y-133666666D01*
X157370000Y-133571428D01*
X157322380Y-133428571D01*
X157322380Y-133333333D01*
X157370000Y-133190476D01*
X157417619Y-133142857D01*
X158322380Y-132190476D02*
X158322380Y-132761904D01*
X158322380Y-132476190D02*
X157322380Y-132476190D01*
X157465238Y-132571428D01*
X157560476Y-132666666D01*
X157608095Y-132761904D01*
X158322380Y-131238095D02*
X158322380Y-131809523D01*
X158322380Y-131523809D02*
X157322380Y-131523809D01*
X157465238Y-131619047D01*
X157560476Y-131714285D01*
X157608095Y-131809523D01*
%TO.C,D1*%
X169736300Y-104302380D02*
X169736300Y-103302380D01*
X169974396Y-103302380D01*
X170117253Y-103350000D01*
X170212491Y-103445238D01*
X170260110Y-103540476D01*
X170307729Y-103730952D01*
X170307729Y-103873809D01*
X170260110Y-104064285D01*
X170212491Y-104159523D01*
X170117253Y-104254761D01*
X169974396Y-104302380D01*
X169736300Y-104302380D01*
X171260110Y-104302380D02*
X170688681Y-104302380D01*
X170974396Y-104302380D02*
X170974396Y-103302380D01*
X170879157Y-103445238D01*
X170783919Y-103540476D01*
X170688681Y-103588095D01*
%TO.C,C13*%
X153357142Y-81607142D02*
X153309523Y-81654761D01*
X153166666Y-81702380D01*
X153071428Y-81702380D01*
X152928571Y-81654761D01*
X152833333Y-81559523D01*
X152785714Y-81464285D01*
X152738095Y-81273809D01*
X152738095Y-81130952D01*
X152785714Y-80940476D01*
X152833333Y-80845238D01*
X152928571Y-80750000D01*
X153071428Y-80702380D01*
X153166666Y-80702380D01*
X153309523Y-80750000D01*
X153357142Y-80797619D01*
X154309523Y-81702380D02*
X153738095Y-81702380D01*
X154023809Y-81702380D02*
X154023809Y-80702380D01*
X153928571Y-80845238D01*
X153833333Y-80940476D01*
X153738095Y-80988095D01*
X154642857Y-80702380D02*
X155261904Y-80702380D01*
X154928571Y-81083333D01*
X155071428Y-81083333D01*
X155166666Y-81130952D01*
X155214285Y-81178571D01*
X155261904Y-81273809D01*
X155261904Y-81511904D01*
X155214285Y-81607142D01*
X155166666Y-81654761D01*
X155071428Y-81702380D01*
X154785714Y-81702380D01*
X154690476Y-81654761D01*
X154642857Y-81607142D01*
%TO.C,H3*%
X124238095Y-140252380D02*
X124238095Y-139252380D01*
X124238095Y-139728571D02*
X124809523Y-139728571D01*
X124809523Y-140252380D02*
X124809523Y-139252380D01*
X125190476Y-139252380D02*
X125809523Y-139252380D01*
X125476190Y-139633333D01*
X125619047Y-139633333D01*
X125714285Y-139680952D01*
X125761904Y-139728571D01*
X125809523Y-139823809D01*
X125809523Y-140061904D01*
X125761904Y-140157142D01*
X125714285Y-140204761D01*
X125619047Y-140252380D01*
X125333333Y-140252380D01*
X125238095Y-140204761D01*
X125190476Y-140157142D01*
%TO.C,C6*%
X166307729Y-94357142D02*
X166260110Y-94404761D01*
X166117253Y-94452380D01*
X166022015Y-94452380D01*
X165879157Y-94404761D01*
X165783919Y-94309523D01*
X165736300Y-94214285D01*
X165688681Y-94023809D01*
X165688681Y-93880952D01*
X165736300Y-93690476D01*
X165783919Y-93595238D01*
X165879157Y-93500000D01*
X166022015Y-93452380D01*
X166117253Y-93452380D01*
X166260110Y-93500000D01*
X166307729Y-93547619D01*
X167164872Y-93452380D02*
X166974396Y-93452380D01*
X166879157Y-93500000D01*
X166831538Y-93547619D01*
X166736300Y-93690476D01*
X166688681Y-93880952D01*
X166688681Y-94261904D01*
X166736300Y-94357142D01*
X166783919Y-94404761D01*
X166879157Y-94452380D01*
X167069634Y-94452380D01*
X167164872Y-94404761D01*
X167212491Y-94357142D01*
X167260110Y-94261904D01*
X167260110Y-94023809D01*
X167212491Y-93928571D01*
X167164872Y-93880952D01*
X167069634Y-93833333D01*
X166879157Y-93833333D01*
X166783919Y-93880952D01*
X166736300Y-93928571D01*
X166688681Y-94023809D01*
D12*
%TO.C,C8*%
X127340000Y-87660000D02*
X127340000Y-85310000D01*
X134160000Y-81904437D02*
X134160000Y-83190000D01*
X133095563Y-87660000D02*
X127340000Y-87660000D01*
X134160000Y-86595563D02*
X133095563Y-87660000D01*
X133095563Y-80840000D02*
X127340000Y-80840000D01*
X135187500Y-86097500D02*
X134400000Y-86097500D01*
X134160000Y-86595563D02*
X134160000Y-85310000D01*
X134160000Y-81904437D02*
X133095563Y-80840000D01*
X127340000Y-80840000D02*
X127340000Y-83190000D01*
X134793750Y-86491250D02*
X134793750Y-85703750D01*
%TO.C,C2*%
X143261252Y-132235000D02*
X142738748Y-132235000D01*
X143261252Y-130765000D02*
X142738748Y-130765000D01*
%TO.C,J2*%
X155860000Y-71417500D02*
X155860000Y-62877500D01*
X155860000Y-62877500D02*
X141140000Y-62877500D01*
X152500000Y-77977500D02*
X152000000Y-77477500D01*
X155860000Y-77097500D02*
X141140000Y-77097500D01*
X152000000Y-77477500D02*
X151500000Y-77977500D01*
X151500000Y-77977500D02*
X152500000Y-77977500D01*
X155860000Y-77097500D02*
X155860000Y-75117500D01*
X141140000Y-71417500D02*
X141140000Y-62877500D01*
X141140000Y-75117500D02*
X141140000Y-77097500D01*
%TO.C,C12*%
X163064396Y-116160000D02*
X163064396Y-113810000D01*
X168819959Y-109340000D02*
X163064396Y-109340000D01*
X170911896Y-114597500D02*
X170124396Y-114597500D01*
X169884396Y-115095563D02*
X169884396Y-113810000D01*
X169884396Y-110404437D02*
X168819959Y-109340000D01*
X168819959Y-116160000D02*
X163064396Y-116160000D01*
X169884396Y-115095563D02*
X168819959Y-116160000D01*
X163064396Y-109340000D02*
X163064396Y-111690000D01*
X169884396Y-110404437D02*
X169884396Y-111690000D01*
X170518146Y-114991250D02*
X170518146Y-114203750D01*
%TO.C,J5*%
X155860000Y-139582500D02*
X155860000Y-148122500D01*
X155860000Y-135882500D02*
X155860000Y-133902500D01*
X141140000Y-148122500D02*
X155860000Y-148122500D01*
X145000000Y-133522500D02*
X145500000Y-133022500D01*
X141140000Y-133902500D02*
X141140000Y-135882500D01*
X141140000Y-133902500D02*
X155860000Y-133902500D01*
X145500000Y-133022500D02*
X144500000Y-133022500D01*
X141140000Y-139582500D02*
X141140000Y-148122500D01*
X144500000Y-133022500D02*
X145000000Y-133522500D01*
D13*
%TO.C,U1*%
X150074800Y-100420000D02*
X146925200Y-100420000D01*
X146925200Y-110580000D02*
X147992000Y-110580000D01*
D14*
X150100200Y-110580000D02*
X150100200Y-100420000D01*
D13*
X150455800Y-110199000D02*
X150455800Y-100801000D01*
X147992000Y-110580000D02*
X149008000Y-110580000D01*
X146544200Y-100801000D02*
X146544200Y-110199000D01*
X149008000Y-110580000D02*
X150074800Y-110580000D01*
X150455800Y-100801000D02*
G75*
G03*
X150074800Y-100420000I-381000J0D01*
G01*
X149008000Y-110580000D02*
G75*
G03*
X147992000Y-110580000I-508000J0D01*
G01*
X146544200Y-110199000D02*
G75*
G03*
X146925200Y-110580000I380999J-1D01*
G01*
X146925200Y-100420000D02*
G75*
G03*
X146544200Y-100801000I0J-381000D01*
G01*
X150074800Y-110580000D02*
G75*
G03*
X150455800Y-110199000I1J380999D01*
G01*
D12*
%TO.C,C4*%
X139288748Y-106410000D02*
X140711252Y-106410000D01*
X139288748Y-104590000D02*
X140711252Y-104590000D01*
%TO.C,C5*%
X139288748Y-108910000D02*
X140711252Y-108910000D01*
X139288748Y-107090000D02*
X140711252Y-107090000D01*
%TO.C,J3*%
X161022500Y-87250000D02*
X161022500Y-88250000D01*
X176122500Y-91610000D02*
X176122500Y-76890000D01*
X167582500Y-76890000D02*
X176122500Y-76890000D01*
X161522500Y-87750000D02*
X161022500Y-87250000D01*
X161902500Y-91610000D02*
X163882500Y-91610000D01*
X167582500Y-91610000D02*
X176122500Y-91610000D01*
X163882500Y-76890000D02*
X161902500Y-76890000D01*
X161902500Y-91610000D02*
X161902500Y-76890000D01*
X161022500Y-88250000D02*
X161522500Y-87750000D01*
%TO.C,C9*%
X133235000Y-101738748D02*
X133235000Y-102261252D01*
X131765000Y-101738748D02*
X131765000Y-102261252D01*
%TO.C,C3*%
X145738748Y-119485000D02*
X146261252Y-119485000D01*
X145738748Y-118015000D02*
X146261252Y-118015000D01*
%TO.C,Y1*%
X151710000Y-112225000D02*
X145310000Y-112225000D01*
X151710000Y-117275000D02*
X145310000Y-117275000D01*
X151710000Y-117275000D02*
G75*
G03*
X151710000Y-112225000I0J2525000D01*
G01*
X145310000Y-112225000D02*
G75*
G03*
X145310000Y-117275000I0J-2525000D01*
G01*
%TO.C,C1*%
X151261252Y-119485000D02*
X150738748Y-119485000D01*
X151261252Y-118015000D02*
X150738748Y-118015000D01*
%TO.C,C7*%
X158765000Y-90261252D02*
X158765000Y-89738748D01*
X160235000Y-90261252D02*
X160235000Y-89738748D01*
%TO.C,J4*%
X161022500Y-129750000D02*
X161022500Y-130750000D01*
X161902500Y-134110000D02*
X161902500Y-119390000D01*
X163882500Y-119390000D02*
X161902500Y-119390000D01*
X161022500Y-130750000D02*
X161522500Y-130250000D01*
X161902500Y-134110000D02*
X163882500Y-134110000D01*
X167582500Y-134110000D02*
X176122500Y-134110000D01*
X161522500Y-130250000D02*
X161022500Y-129750000D01*
X167582500Y-119390000D02*
X176122500Y-119390000D01*
X176122500Y-134110000D02*
X176122500Y-119390000D01*
%TO.C,C10*%
X134218523Y-124404437D02*
X133154086Y-123340000D01*
X134218523Y-129095563D02*
X133154086Y-130160000D01*
X134852273Y-128991250D02*
X134852273Y-128203750D01*
X135246023Y-128597500D02*
X134458523Y-128597500D01*
X133154086Y-130160000D02*
X127398523Y-130160000D01*
X133154086Y-123340000D02*
X127398523Y-123340000D01*
X127398523Y-130160000D02*
X127398523Y-127810000D01*
X134218523Y-129095563D02*
X134218523Y-127810000D01*
X134218523Y-124404437D02*
X134218523Y-125690000D01*
X127398523Y-123340000D02*
X127398523Y-125690000D01*
%TO.C,R1*%
X165837332Y-104810000D02*
X166291460Y-104810000D01*
X165837332Y-106280000D02*
X166291460Y-106280000D01*
%TO.C,J1*%
X128075000Y-109460000D02*
X125475000Y-109460000D01*
X122575000Y-101540000D02*
X120915000Y-101540000D01*
X130385000Y-102300000D02*
X130385000Y-103450000D01*
X130385000Y-103450000D02*
X130975000Y-103450000D01*
X130975000Y-103450000D02*
X130975000Y-104150000D01*
X120915000Y-109460000D02*
X122575000Y-109460000D01*
X120915000Y-101540000D02*
X120915000Y-109460000D01*
X125475000Y-101540000D02*
X128075000Y-101540000D01*
X130385000Y-107550000D02*
X130385000Y-108700000D01*
%TO.C,C11*%
X158815000Y-132761252D02*
X158815000Y-132238748D01*
X160285000Y-132761252D02*
X160285000Y-132238748D01*
%TO.C,D1*%
X168789396Y-104540000D02*
X168789396Y-106460000D01*
X171474396Y-104540000D02*
X168789396Y-104540000D01*
X168789396Y-106460000D02*
X171474396Y-106460000D01*
%TO.C,C13*%
X154261252Y-80235000D02*
X153738748Y-80235000D01*
X154261252Y-78765000D02*
X153738748Y-78765000D01*
%TO.C,C6*%
X169884396Y-95904437D02*
X168819959Y-94840000D01*
X170911896Y-100097500D02*
X170124396Y-100097500D01*
X169884396Y-95904437D02*
X169884396Y-97190000D01*
X168819959Y-101660000D02*
X163064396Y-101660000D01*
X163064396Y-101660000D02*
X163064396Y-99310000D01*
X169884396Y-100595563D02*
X168819959Y-101660000D01*
X169884396Y-100595563D02*
X169884396Y-99310000D01*
X170518146Y-100491250D02*
X170518146Y-99703750D01*
X163064396Y-94840000D02*
X163064396Y-97190000D01*
X168819959Y-94840000D02*
X163064396Y-94840000D01*
%TD*%
%LPC*%
D15*
%TO.C,C8*%
X133550000Y-84250000D03*
X127950000Y-84250000D03*
%TD*%
D16*
%TO.C,C2*%
X143950000Y-131500000D03*
X142050000Y-131500000D03*
%TD*%
D17*
%TO.C,J2*%
X152000000Y-75977500D03*
D18*
X149500000Y-75977500D03*
X147500000Y-75977500D03*
X145000000Y-75977500D03*
D19*
X141930000Y-73267500D03*
X155070000Y-73267500D03*
%TD*%
D15*
%TO.C,C12*%
X169274396Y-112750000D03*
X163674396Y-112750000D03*
%TD*%
D17*
%TO.C,J5*%
X145000000Y-135022500D03*
D18*
X147500000Y-135022500D03*
X149500000Y-135022500D03*
X152000000Y-135022500D03*
D19*
X155070000Y-137732500D03*
X141930000Y-137732500D03*
%TD*%
D20*
%TO.C,U1*%
X151573400Y-109945000D03*
X151573400Y-108675000D03*
X151573400Y-107405000D03*
X151573400Y-106135000D03*
X151573400Y-104865000D03*
X151573400Y-103595000D03*
X151573400Y-102325000D03*
X151573400Y-101055000D03*
X145426600Y-101055000D03*
X145426600Y-102325000D03*
X145426600Y-103595000D03*
X145426600Y-104865000D03*
X145426600Y-106135000D03*
X145426600Y-107405000D03*
X145426600Y-108675000D03*
X145426600Y-109945000D03*
%TD*%
D21*
%TO.C,C4*%
X138525000Y-105500000D03*
X141475000Y-105500000D03*
%TD*%
%TO.C,C5*%
X138525000Y-108000000D03*
X141475000Y-108000000D03*
%TD*%
D17*
%TO.C,J3*%
X163022500Y-87750000D03*
D18*
X163022500Y-85250000D03*
X163022500Y-83250000D03*
X163022500Y-80750000D03*
D19*
X165732500Y-77680000D03*
X165732500Y-90820000D03*
%TD*%
D22*
%TO.C,C9*%
X132500000Y-101050000D03*
X132500000Y-102950000D03*
%TD*%
D23*
%TO.C,C3*%
X145050000Y-118750000D03*
X146950000Y-118750000D03*
%TD*%
D24*
%TO.C,Y1*%
X150950000Y-114750000D03*
X146070000Y-114750000D03*
%TD*%
D25*
%TO.C,H1*%
X172000000Y-67000000D03*
%TD*%
D16*
%TO.C,C1*%
X151950000Y-118750000D03*
X150050000Y-118750000D03*
%TD*%
D26*
%TO.C,C7*%
X159500000Y-90950000D03*
X159500000Y-89050000D03*
%TD*%
D17*
%TO.C,J4*%
X163022500Y-130250000D03*
D18*
X163022500Y-127750000D03*
X163022500Y-125750000D03*
X163022500Y-123250000D03*
D19*
X165732500Y-120180000D03*
X165732500Y-133320000D03*
%TD*%
D25*
%TO.C,H4*%
X125000000Y-67000000D03*
%TD*%
D15*
%TO.C,C10*%
X133608523Y-126750000D03*
X128008523Y-126750000D03*
%TD*%
D27*
%TO.C,R1*%
X165151896Y-105545000D03*
X166976896Y-105545000D03*
%TD*%
D28*
%TO.C,J1*%
X126925000Y-103300000D03*
X126925000Y-107700000D03*
D29*
X129525000Y-103900000D03*
X129525000Y-104700000D03*
X129525000Y-105500000D03*
X129525000Y-106300000D03*
X129525000Y-107100000D03*
D30*
X124025000Y-101100000D03*
X129525000Y-109900000D03*
X124025000Y-109900000D03*
X129525000Y-101100000D03*
%TD*%
D25*
%TO.C,H2*%
X172000000Y-144000000D03*
%TD*%
D26*
%TO.C,C11*%
X159550000Y-133450000D03*
X159550000Y-131550000D03*
%TD*%
D31*
%TO.C,D1*%
X169536896Y-105500000D03*
X171411896Y-105500000D03*
%TD*%
D16*
%TO.C,C13*%
X154950000Y-79500000D03*
X153050000Y-79500000D03*
%TD*%
D25*
%TO.C,H3*%
X125000000Y-144000000D03*
%TD*%
D15*
%TO.C,C6*%
X169274396Y-98250000D03*
X163674396Y-98250000D03*
%TD*%
M02*
