M48
; DRILL file {KiCad (6.0.5)} date Wed May  1 13:43:44 2024
; FORMAT={-:-/ absolute / metric / decimal}
; #@! TF.CreationDate,2024-05-01T13:43:44+02:00
; #@! TF.GenerationSoftware,Kicad,Pcbnew,(6.0.5)
; #@! TF.FileFunction,Plated,1,2,PTH
FMAT,2
METRIC
; #@! TA.AperFunction,Plated,PTH,ViaDrill
T1C0.400
; #@! TA.AperFunction,Plated,PTH,ComponentDrill
T2C0.800
; #@! TA.AperFunction,Plated,PTH,ComponentDrill
T3C0.920
; #@! TA.AperFunction,Plated,PTH,ComponentDrill
T4C2.300
; #@! TA.AperFunction,Plated,PTH,ComponentDrill
T5C3.200
%
G90
G05
T1
X124.25Y-105.5
X126.5Y-82.5
X126.5Y-86.0
X126.5Y-125.0
X126.5Y-128.5
X126.75Y-101.0
X126.75Y-110.0
X133.75Y-123.75
X133.75Y-129.75
X133.75Y-136.75
X134.0Y-81.25
X134.0Y-87.25
X134.25Y-73.75
X134.25Y-96.5
X134.25Y-103.0
X136.75Y-106.75
X145.5Y-99.5
X146.5Y-96.5
X146.75Y-84.25
X147.75Y-105.0
X148.5Y-118.75
X150.25Y-84.25
X153.5Y-126.75
X154.25Y-99.25
X155.25Y-109.25
X156.0Y-104.75
X157.25Y-119.25
X158.0Y-96.75
X162.25Y-96.5
X162.25Y-100.0
X162.25Y-105.5
X162.25Y-111.0
X162.25Y-114.5
T2
X146.07Y-114.75
X150.95Y-114.75
T3
X145.0Y-75.977
X145.0Y-135.023
X147.5Y-75.977
X147.5Y-135.023
X149.5Y-75.977
X149.5Y-135.023
X152.0Y-75.977
X152.0Y-135.023
X163.022Y-80.75
X163.022Y-83.25
X163.022Y-85.25
X163.022Y-87.75
X163.022Y-123.25
X163.022Y-125.75
X163.022Y-127.75
X163.022Y-130.25
T4
X141.93Y-73.267
X141.93Y-137.732
X155.07Y-73.267
X155.07Y-137.732
X165.732Y-77.68
X165.732Y-90.82
X165.732Y-120.18
X165.732Y-133.32
T5
X125.0Y-67.0
X125.0Y-144.0
X172.0Y-67.0
X172.0Y-144.0
T0
M30
